<?xml version="1.0" encoding="UTF-8"?><svg id="Buildings" xmlns="http://www.w3.org/2000/svg" viewBox="0 0 4404.26 4404.26"><defs><style>.cls-1{fill:#1d1d1b;fill-rule:evenodd;}</style></defs><g id="HATCH"><polygon class="cls-1" points="5.09 3821.97 127.39 3854.9 166.42 3865.44 118.69 4048.83 5.09 4018.25 5.09 3821.97 5.09 3821.97"/></g><g id="HATCH-2"><polygon class="cls-1" points="605.26 2913.84 601.42 2841 732.79 2834.63 736.82 2907.38 605.26 2913.84 605.26 2913.84"/></g><g id="HATCH-3"><polygon class="cls-1" points="4173.9 2129.77 4160.71 2175.15 4137.17 2166.94 4150.29 2121.91 4156.25 2101.94 4179.63 2110.15 4173.9 2129.77 4173.9 2129.77"/></g><g id="HATCH-4"><polygon class="cls-1" points="3885.67 2454.66 3909.28 2411.21 3925.97 2421.22 3902.35 2464.67 3885.67 2454.66 3885.67 2454.66"/></g><g id="HATCH-5"><polygon class="cls-1" points="3102.3 3816.31 3092.63 3873.07 3016.2 3859.9 2978.38 4081.34 2989.89 4083.28 2975.96 4163.88 2857.74 4143.63 2871.67 4062.65 2873.22 4054.8 2888.89 4057.51 2925.17 3845.95 2873.41 3837.13 2835.1 3830.45 2831.62 3850.31 2721.14 3832 2755 3628.77 2482.57 3585.56 2466.51 3583.14 2457.42 3581.69 2465.35 3531.51 2476.77 3458.28 2561.51 3471.65 2557.84 3493.73 2771.64 3527.44 2773.38 3515.33 2884.05 3533.64 2878.63 3567.55 2874.38 3591.96 2838.68 3808.56 2878.25 3815.34 2904.95 3819.89 2910.95 3783.37 3102.3 3816.31 3102.3 3816.31"/></g><g id="HATCH-6"><polygon class="cls-1" points="2033.18 3497.81 2044.99 3420.25 2040.67 3419.68 2056.33 3289.69 2164.64 3303.97 2165.8 3297.31 2259.42 3310.15 2261.53 3293.5 2288.9 3297.21 2286.41 3313.86 2381.09 3326.62 2417.29 3331.56 2410.86 3375.34 2433.13 3378.48 2429.87 3401.98 2452.72 3405.03 2446.67 3448.99 2444.47 3463.74 2419.11 3460.12 2384.93 3455.37 2361.11 3452.13 2361.88 3444.42 2308.11 3437.67 2305.23 3458.12 2304.75 3461.93 2202.09 3448.61 2204.78 3423.68 2151.58 3417.21 2061.7 3405.79 2059.01 3423.87 2102.8 3430.43 2096.18 3473.35 2133.34 3479.06 2121.43 3559.66 2084.17 3554.24 2077.64 3598.29 2034.43 3591.92 2019.36 3589.82 2033.18 3497.81 2033.18 3497.81"/></g><g id="HATCH-7"><polygon class="cls-1" points="2153.96 3421.34 2199.06 3425.96 2196.78 3443.76 2172.85 3441.79 2150.71 3439.55 2153.96 3421.34 2153.96 3421.34"/></g><g id="HATCH-8"><polygon class="cls-1" points="2418.34 3463.61 2416.47 3474.9 2391.2 3471.79 2392.78 3460.73 2418.34 3463.61 2418.34 3463.61"/></g><g id="HATCH-9"><polygon class="cls-1" points="1614.98 3890.54 1665.66 3898.25 1663.45 3910.5 1707.13 3917.77 1703.99 3934.66 1755.59 3946.04 1749.14 3972.3 1695.7 3960.49 1604.48 3945.52 1614.98 3890.54 1614.98 3890.54"/></g><g id="HATCH-10"><polygon class="cls-1" points="1829.77 3397.97 1813.31 3465.47 1794.59 3461.42 1711.32 3443.23 1705.86 3442.11 1713.32 3407.19 1783.13 3422.37 1802.95 3426.68 1811.13 3393.83 1829.77 3397.97 1829.77 3397.97"/></g><g id="HATCH-11"><polygon class="cls-1" points="1711.76 3388.8 1717.39 3361.41 1769.07 3372.49 1767.45 3379.46 1774.7 3380.96 1777.6 3402.89 1711.76 3388.8 1711.76 3388.8"/></g><g id="HATCH-12"><polygon class="cls-1" points="1814.99 3331 1813.27 3338.21 1841.07 3344.3 1830.62 3388.55 1812 3384.37 1779.29 3377.16 1771.57 3375.51 1773.29 3367.86 1718.24 3355.69 1727.33 3311.7 1814.99 3331 1814.99 3331"/></g><g id="HATCH-13"><polygon class="cls-1" points="1595.75 3459.97 1464.29 3422.02 1467.53 3410.44 1469.75 3400.7 1481.98 3371.48 1499.58 3378.28 1507.18 3347.87 1515.52 3315.43 1629.84 3343.92 1595.75 3459.97 1595.75 3459.97"/></g><g id="HATCH-14"><polygon class="cls-1" points="1718.89 3820.42 1675.16 3813.93 1629.82 3807.11 1637.84 3765.87 1657.35 3765.29 1710.79 3774.18 1726.91 3776.76 1718.89 3820.42 1718.89 3820.42"/></g><g id="HATCH-15"><polygon class="cls-1" points="1661.47 3642.8 1672.62 3644.68 1674.51 3636.19 1747.28 3647.77 1869.76 3667.31 1909.64 3673.57 1903.4 3704.69 1856.15 3697.06 1732.35 3677.43 1656.74 3665.26 1661.47 3642.8 1661.47 3642.8"/></g><g id="HATCH-16"><polygon class="cls-1" points="1527.55 4395.73 1535.29 4343.07 1561.4 4181.74 1632.74 4192.9 1612.88 4321.58 1714.33 4337.26 1705.29 4395.73 1527.55 4395.73 1527.55 4395.73"/></g><g id="HATCH-17"><polygon class="cls-1" points="1762.65 4395.73 1764.83 4377.04 1820.83 4380.63 1819.32 4395.73 1762.65 4395.73 1762.65 4395.73"/></g><g id="HATCH-18"><polygon class="cls-1" points="2311.82 3456.07 2314.26 3442.46 2359.79 3446.95 2359.14 3452.08 2357.67 3460.56 2311.82 3456.07 2311.82 3456.07"/></g><g id="HATCH-19"><polygon class="cls-1" points="3425.79 3653.8 3318.82 3647.38 3319.19 3642.37 3291.79 3640.76 3294.14 3599.94 3235.57 3594.37 3196.4 3590.78 3213.91 3402.08 3235.57 3404.07 3264.39 3406.81 3295.27 3409.83 3341.98 3414.08 3329.17 3553.64 3346.22 3554.59 3424.85 3559.31 3426.73 3610.71 3427.49 3626.21 3425.79 3653.8 3425.79 3653.8"/></g><g id="HATCH-20"><polygon class="cls-1" points="2449.58 967.88 2442.97 1020.31 2420.63 1017.76 2349.16 1002.13 2357.46 956.24 2408.84 963.12 2449.58 967.88 2449.58 967.88"/></g><g id="HATCH-21"><polygon class="cls-1" points="2510.08 953.41 2415.41 939.99 2414.85 943.21 2360.45 935.96 2375.8 851.22 2382.49 852.2 2419.69 857.93 2516.22 872.34 2537.61 875.47 2530.44 920.57 2518.26 918.69 2510.08 953.41 2510.08 953.41"/></g><g id="HATCH-22"><polygon class="cls-1" points="2445.64 1027.68 2505.48 1031.33 2504.27 1052.09 2489.19 1050.53 2488.45 1066.77 2425.17 1063.56 2420.33 1083.97 2387.02 1080.33 2326.07 1066.08 2340.49 1007.52 2347.94 1009.08 2422.38 1025.07 2445.64 1027.68 2445.64 1027.68"/></g><g id="HATCH-23"><polygon class="cls-1" points="2128.7 1081.28 2149.32 1054.48 2172.48 1070.81 2196 1083.2 2244.84 1087.83 2236.88 1134.27 2213.45 1126.77 2165.24 1109.31 2128.7 1081.28 2128.7 1081.28"/></g><g id="HATCH-24"><polygon class="cls-1" points="2162.49 994.92 2163.39 990.1 2202.12 973.33 2264.2 982.14 2258.92 1008.62 2162.49 994.92 2162.49 994.92"/></g><g id="HATCH-25"><polygon class="cls-1" points="2176.25 1066.57 2182.32 1040.43 2251.72 1051.44 2245.65 1082.01 2198.8 1077.81 2176.25 1066.57 2176.25 1066.57"/></g><g id="HATCH-26"><polygon class="cls-1" points="2163.48 984.85 2165.1 976.14 2235.4 938.95 2271.37 943.63 2264.8 976.46 2202.41 967.18 2163.48 984.85 2163.48 984.85"/></g><g id="HATCH-27"><polygon class="cls-1" points="2167.07 1173.71 2224.9 1189.38 2208.78 1245.48 2175.69 1239.47 2017.49 1209.82 2027.8 1172.56 2067.72 1177.52 2072.88 1154.69 2167.07 1173.71 2167.07 1173.71"/></g><g id="HATCH-28"><polygon class="cls-1" points="2309.36 1143.59 2372.65 1156.35 2368.84 1174.16 2425.17 1185.1 2465.45 1182.15 2468.05 1204.56 2423.13 1213.68 2397.89 1213.5 2396.96 1219.84 2370.61 1216.89 2336.36 1215.85 2337.01 1198.13 2297.48 1193.53 2309.36 1143.59 2309.36 1143.59"/></g><g id="HATCH-29"><polygon class="cls-1" points="2225.44 1183.2 2167.7 1167.06 2073.66 1147.46 2045.87 1141.63 2035.76 1139.44 2042.97 1113.09 2058.78 1054.28 2094.71 1061.21 2124.28 1082.46 2162.09 1111.72 2211.96 1129.96 2236.2 1137.8 2225.44 1183.2 2225.44 1183.2"/></g><g id="HATCH-30"><polygon class="cls-1" points="2538.17 1245.68 2511.22 1250 2504.53 1202.28 2497.31 1150.51 2501.31 1149.96 2497.74 1125.59 2495.83 1112.99 2501.31 1112.17 2517.31 1109.59 2549.48 1104.53 2553.47 1103.8 2572.78 1240.16 2538.17 1245.68 2538.17 1245.68"/></g><g id="HATCH-31"><polygon class="cls-1" points="2179.33 1033.01 2131.06 1026.23 2134.52 1007.89 2158.2 1011.32 2160.21 1001.04 2258.4 1015.31 2252.21 1044.09 2179.33 1033.01 2179.33 1033.01"/></g><g id="HATCH-32"><polygon class="cls-1" points="2324.08 1073.74 2380.42 1087.94 2373.54 1123.18 2368.72 1148.03 2310.05 1135.3 2324.08 1073.74 2324.08 1073.74"/></g><g id="HATCH-33"><polygon class="cls-1" points="2429.6 2400.42 2333.73 2398.42 2337.39 2364.25 2374.66 2366.94 2373.06 2372.18 2432.09 2375.79 2429.6 2400.42 2429.6 2400.42"/></g><g id="HATCH-34"><polygon class="cls-1" points="2421.58 2195.86 2519.33 2206.4 2518.79 2211.94 2502.22 2354.45 2393.36 2339.47 2421.58 2195.86 2421.58 2195.86"/></g><g id="HATCH-35"><polygon class="cls-1" points="2175.22 2463.3 2112.39 2446.33 2143.81 2333.11 2270.58 2372.06 2262.82 2391.13 2262.54 2401.08 2256.17 2433.37 2242.03 2431.46 2249.51 2393.6 2236.86 2390.13 2219.76 2450.98 2181.69 2440.58 2175.22 2463.3 2175.22 2463.3"/></g><g id="HATCH-36"><polygon class="cls-1" points="2078.96 2952.74 2027.9 2911.74 2064.26 2854.87 2107.14 2888.83 2114.18 2893.56 2078.96 2952.74 2078.96 2952.74"/></g><g id="HATCH-37"><polygon class="cls-1" points="2226.16 2567.76 2190.69 2545.15 2202.86 2485.42 2210.57 2481.74 2226.92 2482.5 2311.37 2499.74 2313.08 2487.87 2422.06 2509.73 2431.38 2410.42 2492.9 2416.55 2479.12 2581.71 2468.27 2582.27 2453.06 2644.36 2300.91 2609.03 2306.23 2583.87 2226.16 2567.76 2226.16 2567.76"/></g><g id="HATCH-38"><polygon class="cls-1" points="2152.35 2894.46 2377.76 2929.53 2362.64 3023.59 2212.1 3000.22 2197.64 3091.76 2069.75 3071.84 2076.79 3026.58 2114.67 3032.57 2120.57 2995.54 2135.79 2997.88 2152.35 2894.46 2152.35 2894.46"/></g><g id="HATCH-39"><polygon class="cls-1" points="3621.57 2874.57 3543.33 2865.38 3533.74 2949.82 3481.68 2943.73 3463.94 3099.17 3473.53 3100.23 3472.37 3109.33 3578.42 3121.9 3568.26 3209.54 3523.58 3204.22 3522.43 3214.95 3450.8 3206.54 3422.32 3203.25 3355.39 3195.32 3356.16 3190.19 3245.13 3177.13 3256.06 3083.98 3325.29 3092.11 3333.63 3019.08 3340.24 2961.24 3345.61 2914.32 3349.83 2879.31 3341.78 2878.44 3345.81 2842.26 3319.25 2839.07 3340.82 2653.06 3315.12 2649.97 3321.64 2593.38 3347.44 2596.57 3349.64 2576.55 3651.87 2612.05 3621.57 2874.57 3621.57 2874.57"/></g><g id="HATCH-40"><polygon class="cls-1" points="2666.98 3161.03 2610.35 3146.93 2616.26 3122.12 2554.74 3107.36 2554.19 3107.17 2565.53 2942.11 2656.19 2959.22 2646.42 3024.64 2707.56 3039.49 2678.7 3163.57 2666.98 3161.03 2666.98 3161.03"/></g><g id="HATCH-41"><polygon class="cls-1" points="1860.69 2284.11 1871.22 2225.24 1897.3 2229.62 1996.49 2246.87 1978.92 2307.58 1913.58 2290.33 1860.69 2284.11 1860.69 2284.11"/></g><g id="HATCH-42"><polygon class="cls-1" points="2174.5 3229.27 2167.8 3263.29 2131.45 3256.26 2137.91 3222.4 2174.5 3229.27 2174.5 3229.27"/></g><g id="HATCH-43"><polygon class="cls-1" points="1968.58 3192.59 1956.59 3262.6 1836.14 3251.3 1760.68 3244.06 1768.46 3176.79 1772.59 3173.96 1968.21 3192.59 1968.58 3192.59 1968.58 3192.59"/></g><g id="HATCH-44"><polygon class="cls-1" points="2016.56 2627.84 1964.44 2598.83 1988.15 2529.41 2021.53 2509.35 2093.61 2530.44 2092.68 2533.42 2172.73 2585.21 2143.67 2698.1 2089.21 2684.1 2099.05 2647.44 2016.56 2627.84 2016.56 2627.84"/></g><g id="HATCH-45"><polygon class="cls-1" points="2595.98 2562.07 2592.84 2606.73 2546.62 2592.98 2562.11 2372.4 2608.93 2376.55 2604.7 2437.13 2601.82 2477.65 2595.98 2562.07 2595.98 2562.07"/></g><g id="HATCH-46"><polygon class="cls-1" points="2242.32 2249.38 2310.16 2270.49 2352.61 2283.63 2328.91 2356.77 2325.06 2397.87 2284.11 2396.85 2266.21 2396.39 2266.49 2386.3 2274.37 2366.95 2145.79 2327.42 2163.41 2234.57 2242.32 2249.38 2242.32 2249.38"/></g><g id="HATCH-47"><polygon class="cls-1" points="2163.39 2729.34 2147.95 2727.96 2151.81 2700.18 2179.01 2589.22 2213.74 2612.33 2231.28 2617.56 2217.07 2695.23 2215.15 2706.96 2167.78 2699.26 2163.39 2729.34 2163.39 2729.34"/></g><g id="HATCH-48"><polygon class="cls-1" points="2158.59 2800.55 2111.33 2882.3 2068.07 2847.93 2064.25 2844.68 2076.15 2826.81 2084.68 2811.47 2105.11 2776.19 2106.89 2769.7 2130.87 2784.22 2149.7 2795.32 2158.59 2800.55 2158.59 2800.55"/></g><g id="HATCH-49"><polygon class="cls-1" points="1961.82 2603.11 2009.06 2629.46 1998.02 2662.93 1950.61 2645.22 1954.68 2635.64 1945.08 2632.09 1957.57 2600.23 1961.82 2603.11 1961.82 2603.11"/></g><g id="HATCH-50"><polygon class="cls-1" points="2178.65 3136.6 2176.93 3145.89 2096.07 3133.7 2062.68 3128.65 2069.21 3091.93 2102.97 3096.99 2183.74 3109.09 2178.65 3136.6 2178.65 3136.6"/></g><g id="HATCH-51"><polygon class="cls-1" points="1856.16 2291.26 1910.5 2297.51 1977.62 2314.88 1956.28 2378.71 1946.03 2375.98 1897.52 2363.28 1755.38 2339.39 1764.4 2302.1 1851.46 2315.76 1856.16 2291.26 1856.16 2291.26"/></g><g id="HATCH-52"><polygon class="cls-1" points="2168.26 2157.94 2194.41 2160.79 2193.01 2170.02 2246.42 2177.78 2245.03 2189.69 2341.51 2206.25 2338.35 2229.97 2243.44 2216.08 2162.49 2204.18 2168.26 2157.94 2168.26 2157.94"/></g><g id="HATCH-53"><polygon class="cls-1" points="2001.08 2670.71 2072.62 2694.27 2058.17 2734.84 2048.78 2731.42 2018.57 2720.56 1933.86 2690.68 1932.21 2690.16 1923.27 2687 1927.6 2677.19 1935.7 2658.44 1945.83 2662.12 1949.7 2652.39 2001.08 2670.71 2001.08 2670.71"/></g><g id="HATCH-54"><polygon class="cls-1" points="1857.48 2534.87 1893.13 2547.61 1879.34 2581.48 1789.76 2546.42 1799.53 2517.8 1857.48 2534.87 1857.48 2534.87"/></g><g id="HATCH-55"><polygon class="cls-1" points="2106.32 3216.6 2099.84 3273.8 2059.34 3268.42 2066.14 3207.46 2106.32 3216.6 2106.32 3216.6"/></g><g id="HATCH-56"><path class="cls-1" d="m2018.97,2726.34l30.69,11.29-6.74,14.66,56.52,18.49-21.52,35.61-8.98,15.48-47.72-23.41-34.81-16.21-87.4-35.79,7.3-16.94,8.52,2.91,16.38-37.71,1.68.55,86.09,31.06h0m-23.21,33.61l4.49,1.73,7.86-17.67-26.01-10.38-8.05,17.76,21.71,8.56h0Z"/></g><g id="HATCH-57"><polygon class="cls-1" points="1713.03 2571.95 1734.13 2529 1746.9 2534.31 1733.02 2562.43 1750.61 2569.57 1746.26 2580.1 1861.11 2628.55 1846.67 2666.46 1698.59 2601.63 1713.03 2571.95 1713.03 2571.95"/></g><g id="HATCH-58"><polygon class="cls-1" points="1632.18 2156.17 1643.36 2086.62 1656.82 2090.18 1796.87 2132.13 1903.94 2152.97 1890.49 2220.15 1863.48 2215.58 1780 2200.5 1778.2 2200.32 1632.18 2156.17 1632.18 2156.17"/></g><g id="HATCH-59"><polygon class="cls-1" points="1678.94 2374.04 1685.95 2329.77 1752.6 2343.65 1895.76 2368.09 1944.61 2381.07 1932.12 2412.99 1939.88 2421.02 1931.93 2441.49 1851.64 2410.74 1678.94 2374.04 1678.94 2374.04"/></g><g id="HATCH-60"><polygon class="cls-1" points="1658.51 2655.75 1670.26 2630.37 1680.89 2605.07 1683.97 2601.11 1696.19 2606.42 1696.56 2606.42 1845.78 2670.16 1834.78 2697.79 1822.65 2700.58 1818.64 2710.57 1683.97 2666.11 1658.51 2655.75 1658.51 2655.75"/></g><g id="HATCH-61"><polygon class="cls-1" points="1862.21 2625.79 1748.27 2578.96 1752.58 2568.78 1735.14 2561.88 1748.91 2534.7 1752.31 2535.94 1786.19 2549.31 1878 2585.87 1875.99 2591.36 1862.21 2625.79 1862.21 2625.79"/></g><g id="HATCH-62"><polygon class="cls-1" points="484.51 2747.46 608.01 2743.56 609.1 2769.19 480.86 2773.16 479.4 2747.75 484.51 2747.46 484.51 2747.46"/></g><g id="HATCH-63"><polygon class="cls-1" points="1147.66 2443.69 1136.5 2559.97 1105.7 2558.39 1116.78 2387.04 1152.19 2395.68 1147.66 2443.69 1147.66 2443.69"/></g><g id="HATCH-64"><polygon class="cls-1" points="1060.43 2276.75 1056.99 2330.67 1025.85 2329.01 990.54 2328.01 943.01 2326.6 943.55 2317.04 973.16 2317.96 974.97 2276.41 983.48 2276.41 1019.69 2275.83 1060.43 2276.75 1060.43 2276.75"/></g><g id="HATCH-65"><polygon class="cls-1" points="1397.9 3543.31 1492.65 3563.96 1494.16 3558.24 1564.51 3573.44 1555.09 3614.11 1346.1 3568.43 1332.54 3565.48 1338.19 3541.7 1341.4 3529.01 1345.26 3513.1 1384.15 3523.29 1379.63 3538.66 1397.9 3543.31 1397.9 3543.31"/></g><g id="HATCH-66"><polygon class="cls-1" points="1410.94 3492.27 1504.25 3516.19 1505.19 3513.32 1510.09 3492.36 1579.66 3507.05 1577.96 3515.49 1582.3 3516.45 1574.19 3551.5 1569.66 3550.54 1569.1 3552.8 1565.23 3569.41 1494.82 3554.63 1493.32 3560.19 1398.49 3540.1 1380.21 3535.58 1384.73 3520.62 1345.8 3510.71 1346.65 3507.05 1348.16 3502.01 1348.44 3500.62 1405 3515.06 1410.94 3492.27 1410.94 3492.27"/></g><g id="HATCH-67"><polygon class="cls-1" points="1652.93 3248.14 1643.81 3283.43 1561.94 3265.78 1566.63 3246.82 1571.06 3231.24 1652.93 3248.14 1652.93 3248.14"/></g><g id="HATCH-68"><polygon class="cls-1" points="1510.48 3043.9 1464.89 3128.97 1458.09 3143.73 1405.43 3118.41 1391.29 3108.57 1408.78 3081.15 1409.96 3078.88 1432.08 3092.81 1439.15 3080.33 1445.04 3070.13 1476.22 3016.58 1510.48 3043.9 1510.48 3043.9"/></g><g id="HATCH-69"><polygon class="cls-1" points="1407.88 2741.37 1369.36 2826.11 1331.36 2805.27 1374.48 2722.99 1386.59 2700.14 1420.78 2716.52 1407.88 2741.37 1407.88 2741.37"/></g><g id="HATCH-70"><polygon class="cls-1" points="1550.61 3182.12 1579.04 3187.25 1579.86 3187.41 1663.05 3205.49 1653.7 3241.38 1569.68 3224.15 1540.62 3217.17 1550.61 3182.12 1550.61 3182.12"/></g><g id="HATCH-71"><polygon class="cls-1" points="1095.7 2568.11 1091.93 2628.35 1069.45 2608.91 1073.29 2566.92 1095.7 2568.11 1095.7 2568.11"/></g><g id="HATCH-72"><polygon class="cls-1" points="1405.68 3057.34 1404.81 3058.84 1398.2 3055.12 1357.5 3030.77 1358.28 3029.26 1393.85 2967.26 1434.64 2991.44 1409.33 3035.9 1415.59 3039.8 1405.68 3057.34 1405.68 3057.34"/></g><g id="HATCH-73"><polygon class="cls-1" points="822.42 2322.58 780.62 2266.99 797.32 2267.24 935.47 2270.01 933.71 2316.2 933.16 2325.86 822.42 2322.58 822.42 2322.58"/></g><g id="HATCH-74"><polygon class="cls-1" points="1003.09 2511.63 1054.39 2482.08 1057.86 2392.48 1058.77 2377.61 1094.55 2383.26 1109.16 2386.65 1096.65 2560.29 1067.9 2558.97 1062.97 2605.75 1040.15 2588.53 1035.95 2594.83 977.98 2526.13 1003.09 2511.63 1003.09 2511.63"/></g><g id="HATCH-75"><polygon class="cls-1" points="745.25 2559.87 816.45 2507.19 830.06 2525.79 821.22 2532.2 831.47 2546.26 818.22 2555.96 834.47 2578.56 801.08 2603.29 774.58 2566.72 758.85 2578.56 745.25 2559.87 745.25 2559.87"/></g><g id="HATCH-76"><polygon class="cls-1" points="1308.54 3297.28 1274.73 3280.57 1283.09 3264.58 1220.35 3233.68 1237.99 3199 1245.8 3202.69 1251.77 3190.47 1364.39 3245.72 1344.83 3283.89 1321.58 3272.58 1308.54 3297.28 1308.54 3297.28"/></g><g id="HATCH-77"><polygon class="cls-1" points="1642.81 3288.22 1630.68 3335.89 1517.29 3308.22 1519.49 3299.29 1498.08 3293.75 1513.98 3236.45 1523.63 3238.86 1562.68 3248.59 1557.81 3269.12 1642.81 3288.22 1642.81 3288.22"/></g><g id="HATCH-78"><polygon class="cls-1" points="287.29 2449.92 489.64 2461.94 484.39 2539.93 415.04 2535.68 282.13 2527.81 287.29 2449.92 287.29 2449.92"/></g><g id="HATCH-79"><polygon class="cls-1" points="577.65 4204.27 607.06 4039.58 640.54 4046.73 610.87 4211.33 577.65 4204.27 577.65 4204.27"/></g><g id="HATCH-80"><polygon class="cls-1" points="1267.72 3126.79 1261.68 3137.51 1236.57 3181.84 1232.8 3179.57 1126.53 3118.81 1113.31 3111.22 1080.84 3092.71 1100.66 3057.68 1106.52 3047.62 1134.64 3063.56 1229.78 2895.45 1325.29 2950.13 1235.63 3108.37 1267.72 3126.79 1267.72 3126.79"/></g><g id="HATCH-81"><polygon class="cls-1" points="1458.78 2876.66 1506.02 2787.97 1540.42 2806.01 1545.18 2794.83 1672.34 2853.17 1755.59 2887.66 1721.38 2985.75 1707.12 2978.51 1696.95 3007.17 1620.64 2969.4 1458.78 2876.66 1458.78 2876.66"/></g><g id="HATCH-82"><polygon class="cls-1" points="1411.8 3703.15 1532.29 3723.24 1520.46 3774.34 1432.75 3759.58 1434.52 3749.88 1350.72 3735.82 1358.45 3694.06 1411.8 3703.15 1411.8 3703.15"/></g><g id="HATCH-83"><polygon class="cls-1" points="2043.36 1997.83 1910.91 1967.25 1918.05 1932.78 1836.33 1914.81 1842.9 1888.41 1845.54 1877.16 1874.56 1883.06 2054.45 1922.34 2054.26 1924.25 2043.36 1997.83 2043.36 1997.83"/></g><g id="HATCH-84"><polygon class="cls-1" points="1978.41 1355.7 1937.77 1359.45 1932.61 1227.78 1970.35 1232.44 1978.41 1355.7 1978.41 1355.7"/></g><g id="HATCH-85"><polygon class="cls-1" points="1537.08 3134.95 1571.27 3074.74 1644.43 3113.76 1682.11 3128.85 1664.28 3199.43 1580.09 3179.88 1579.27 3179.69 1550.5 3174.15 1558.04 3146.22 1537.08 3134.95 1537.08 3134.95"/></g><g id="HATCH-86"><polygon class="cls-1" points="1662.53 3889.48 1615.68 3881.83 1627.94 3814.7 1671.3 3821.83 1664.74 3864.44 1680.93 3867.22 1676.84 3891.74 1662.53 3889.48 1662.53 3889.48"/></g><g id="HATCH-87"><polygon class="cls-1" points="255.73 3889.94 208.75 4072.51 127.46 4050.31 125.73 4049.93 172.8 3867.36 255.73 3889.94 255.73 3889.94"/></g><g id="HATCH-88"><polygon class="cls-1" points="1362.46 2057 1515.16 2088 1522.39 2053.41 1633.77 2085.35 1622.54 2157.28 1594.74 2306.7 1321.24 2249.52 1337.71 2173.63 1362.46 2057 1362.46 2057"/></g><g id="HATCH-89"><polygon class="cls-1" points="1901.82 2522.34 1862.71 2510.12 1761.6 2486.23 1665.98 2457.66 1678.47 2378 1851.16 2415.4 1931.45 2446.73 1901.82 2522.34 1901.82 2522.34"/></g><g id="HATCH-90"><polygon class="cls-1" points="1679.37 3822.76 1724.67 3829.48 1826.72 3844.83 1819.16 3887.08 1762.13 3878.63 1759.55 3894.5 1723.01 3889.15 1725.78 3873.11 1689.8 3867.77 1672.26 3865.01 1679.37 3822.76 1679.37 3822.76"/></g><g id="HATCH-91"><polygon class="cls-1" points="1910.49 1743.55 2079.99 1780.51 2055.64 1916.09 1876.31 1875.88 1880.15 1860.93 1909.09 1749.5 1910.49 1743.55 1910.49 1743.55"/></g><g id="HATCH-92"><polygon class="cls-1" points="2057.59 3207.05 2049.67 3274.93 2047.6 3286.63 2032.24 3416.5 2036.48 3417.07 2024.88 3494.55 1924.69 3480.67 1869.08 3472.97 1821.95 3466.41 1839.01 3391.97 1849.85 3343.58 1821 3336.92 1822.79 3329.03 1839.01 3257.92 1960.13 3270.09 1972.19 3194.69 2057.59 3207.05 2057.59 3207.05"/></g><g id="HATCH-93"><polygon class="cls-1" points="1984.96 2786.74 2019.74 2803.14 2067.42 2826.81 2054.89 2845.05 2051.9 2842.93 2012.82 2900.87 1975.98 2871.85 1998.98 2834.18 1972.62 2821.47 1957.85 2861.08 1940.64 2849.93 1944.57 2841.46 1870.71 2814.37 1870.71 2813.91 1897.64 2750.54 1984.96 2786.74 1984.96 2786.74"/></g><g id="HATCH-94"><polygon class="cls-1" points="1812.78 2991.39 1805.87 2988.54 1840.3 2897.71 1846.73 2899.46 1897.89 2913.27 1894.96 2922.21 1931 2937.41 1939.22 2919.63 1988.97 2934.74 2063.68 2988.26 2045.15 3016.91 2040.61 3048.23 1951.99 3034.14 1909.43 3027.6 1812.78 2991.39 1812.78 2991.39"/></g><g id="HATCH-95"><polygon class="cls-1" points="1869.79 2818.62 1944.2 2845.86 1940.25 2854.38 1957.58 2865.59 1975.85 2876.43 2012.96 2905.62 2020.5 2911.92 2075.13 2954.54 2080.78 2959.17 2064.39 2984.28 1989.98 2930.45 1940.43 2915.25 1932.24 2933.14 1896.35 2917.85 1899.27 2908.86 1848.32 2894.96 1873.37 2827.89 1867.15 2825.57 1869.79 2818.62 1869.79 2818.62"/></g><g id="HATCH-96"><polygon class="cls-1" points="1947.66 3039.42 1934.63 3108.16 1929.46 3107.62 1878.64 3100.68 1796.41 3066.72 1789.76 3049.96 1811.66 2997.62 1906.08 3033.03 1947.66 3039.42 1947.66 3039.42"/></g><g id="HATCH-97"><polygon class="cls-1" points="1678.94 2044.72 1706.85 1950.26 1793.62 1975.62 1816.75 1982.33 1872.18 1993.99 1867.59 2014.41 2036.08 2051.81 2035.6 2056 2019.07 2137.13 1876.96 2104.12 1792.67 2081.28 1678.94 2044.72 1678.94 2044.72"/></g><g id="HATCH-98"><polygon class="cls-1" points="1298.16 2787.48 1338.84 2717.86 1356.14 2684.32 1382.76 2698.92 1370.73 2721.67 1327.85 2803.61 1298.16 2787.48 1298.16 2787.48"/></g><g id="HATCH-99"><polygon class="cls-1" points="1543.17 2788.91 1583.52 2704.27 1627.73 2722.89 1611.42 2757.72 1649.51 2770.94 1686.08 2782.02 1674.3 2809.96 1780.35 2850.56 1769.42 2886.13 1762.06 2884.74 1756.6 2882.41 1674.02 2848.23 1547.89 2790.4 1543.17 2788.91 1543.17 2788.91"/></g><g id="HATCH-100"><polygon class="cls-1" points="1691.12 2786.3 1700.7 2789.69 1780.56 2806.28 1794.11 2808.99 1781.46 2848.61 1679.83 2811.7 1691.12 2786.3 1691.12 2786.3"/></g><g id="HATCH-101"><polygon class="cls-1" points="1373.61 2827.66 1412.27 2742.73 1425.22 2717.82 1466.27 2740.17 1410.58 2847.82 1373.61 2827.66 1373.61 2827.66"/></g><g id="HATCH-102"><polygon class="cls-1" points="1473.34 3013.91 1444.28 3064.84 1434.23 3058.77 1428.82 3068.47 1411.92 3058.51 1421.55 3041.37 1415.47 3037.56 1440.06 2994.08 1473.34 3013.91 1473.34 3013.91"/></g><g id="HATCH-103"><polygon class="cls-1" points="1698.59 3505.91 1710.69 3450.12 1793.39 3468.43 1811.99 3472.51 1799.26 3525.69 1793.39 3524.56 1700.22 3506.17 1698.59 3505.91 1698.59 3505.91"/></g><g id="HATCH-104"><polygon class="cls-1" points="1944.82 3656.94 1915.44 3651.71 1875.07 3645.19 1751.31 3624.16 1666.96 3610.02 1679.17 3547.48 1681.85 3536.27 1693.77 3538.66 1699.4 3513.59 1797.88 3533.06 1792.15 3559.87 1878.03 3576.86 1880.42 3565.84 1803.22 3550.6 1806.46 3534.8 1882.8 3549.86 1976.5 3568.41 1974.6 3575.85 1999.41 3580.72 1996.73 3594.31 2005.13 3596.06 1999.12 3631.51 1951.12 3623.79 1944.82 3656.94 1944.82 3656.94"/></g><g id="HATCH-105"><polygon class="cls-1" points="694.66 4395.73 706.22 4334.65 690.97 4326.7 716.81 4280.36 719.92 4263.2 672.22 4254.08 677.95 4225.48 616.16 4213.75 650.16 4041.86 689.22 3844.28 684.17 3843.31 686.11 3831.87 712.92 3696.72 723.22 3645.53 765.1 3653.87 1189.37 3737.05 1149.73 3937.83 1210.74 3948.4 1212.3 3938.22 1225.32 3940.55 1231.73 3904.58 1284.87 3913.69 1294.01 3864.34 1413.31 3885.58 1414.77 3875.69 1431.87 3878.69 1438.86 3841.17 1440.03 3833.71 1441 3828.38 1509.2 3840.49 1494.05 3924.36 1464.61 4095.38 1434.59 4260.19 1411.47 4395.73 694.66 4395.73 694.66 4395.73"/></g><g id="HATCH-106"><polygon class="cls-1" points="1346.18 3573.91 1554.69 3620.83 1551.78 3633.32 1541.82 3631.11 1539.18 3643.6 1549.15 3646.08 1533.27 3716.87 1411.68 3695.75 1424.55 3640.48 1335.1 3620.37 1346.18 3573.91 1346.18 3573.91"/></g><g id="HATCH-107"><polygon class="cls-1" points="1728.07 3304.37 1738.08 3262.74 1756.51 3265.33 1757.05 3258.09 1757.76 3251.97 1829.77 3259.04 1814.38 3323.51 1728.07 3304.37 1728.07 3304.37"/></g><g id="HATCH-108"><polygon class="cls-1" points="1713.15 3748.15 1709.6 3765.8 1657.63 3757.8 1638.67 3758.32 1643.86 3733.95 1661.19 3740.08 1713.15 3748.15 1713.15 3748.15"/></g><g id="HATCH-109"><polygon class="cls-1" points="1512.91 3814.95 1509.6 3833.09 1443.19 3821.98 1445.46 3809.52 1422.75 3805.61 1260.14 3778.22 1268.18 3737.48 1430.7 3764.88 1519.81 3779.91 1515.56 3801.7 1507.51 3803.12 1506.1 3810.86 1512.91 3814.95 1512.91 3814.95"/></g><g id="HATCH-110"><polygon class="cls-1" points="1555.59 3069.14 1563.63 3073.95 1534.87 3129.78 1526.67 3124.8 1555.59 3069.14 1555.59 3069.14"/></g><g id="HATCH-111"><polygon class="cls-1" points="1343.15 3432.17 1350.71 3407.26 1414.19 3424.88 1420.62 3404.15 1462.94 3415.8 1459.64 3427.01 1593.69 3463.75 1585 3500.05 1580.09 3499.07 1510.37 3484.04 1397.38 3449.07 1343.15 3432.17 1343.15 3432.17"/></g><g id="HATCH-112"><polygon class="cls-1" points="1515.13 3046.05 1553.41 3067.08 1520.65 3126.13 1511.01 3148.05 1471.06 3129.62 1515.13 3046.05 1515.13 3046.05"/></g><g id="HATCH-113"><polygon class="cls-1" points="1725.34 3681.77 1719.65 3713.83 1714.5 3742.61 1662.04 3733.28 1644.56 3726.19 1655.4 3669.5 1725.34 3681.77 1725.34 3681.77"/></g><g id="HATCH-114"><polygon class="cls-1" points="1691.12 2777.99 1715.82 2712.49 1676.19 2699.64 1684.76 2672.04 1817.84 2717.04 1827.61 2720.32 1817.56 2745.74 1804.84 2741.37 1782.36 2799.48 1700.89 2781.63 1691.12 2777.99 1691.12 2777.99"/></g><g id="HATCH-115"><polygon class="cls-1" points="2793.29 1281.62 2839.78 1276.51 2845.09 1342.98 2864.75 1344.57 2864.4 1363.97 2835.88 1358.94 2773.37 1353.3 2774.43 1295.02 2794.8 1292.82 2793.29 1281.62 2793.29 1281.62"/></g><g id="HATCH-116"><polygon class="cls-1" points="2191.68 1650.1 2309.12 1663.39 2340.92 1667.09 2336.63 1700.72 2363.03 1703.72 2359.58 1730.04 2359.02 1735.32 2309.4 1729.6 2309.95 1724.93 2291.3 1722.73 2262.76 1719.47 2175.27 1709.35 2183.19 1649.04 2191.68 1650.1 2191.68 1650.1"/></g><g id="HATCH-117"><polygon class="cls-1" points="2192.56 1642.27 2199.11 1592.46 2207.47 1593.39 2317.35 1605.84 2307.07 1655.06 2192.56 1642.27 2192.56 1642.27"/></g><g id="HATCH-118"><polygon class="cls-1" points="2005.72 1631.56 2105.14 1652.61 2093.6 1703.59 1993.91 1682.54 2005.72 1631.56 2005.72 1631.56"/></g><g id="HATCH-119"><polygon class="cls-1" points="2173 1363.97 2105.43 1346.32 1998.28 1356.11 1995.48 1332.4 2043.08 1327.08 2041.5 1311.29 2114.95 1311.63 2117 1302.94 2185.6 1317.96 2173 1363.97 2173 1363.97"/></g><g id="HATCH-120"><polygon class="cls-1" points="2198.32 1831.8 2135.38 1822.29 2150.03 1745.62 2210.46 1752.92 2198.32 1831.8 2198.32 1831.8"/></g><g id="HATCH-121"><polygon class="cls-1" points="2430.6 1489.02 2436.48 1434.92 2260.93 1413.55 2275.17 1295.52 2288.55 1297.22 2295.09 1243.5 2367.97 1252.39 2471.78 1265.06 2497.31 1289.84 2485.64 1385.27 2491.33 1386.03 2488.68 1405.7 2518.85 1409.39 2521.7 1389.53 2527.58 1390.47 2544.19 1413.64 2538.21 1462.73 2533.46 1501.5 2430.6 1489.02 2430.6 1489.02"/></g><g id="HATCH-122"><polygon class="cls-1" points="2118.34 1295.29 2031.64 1284.36 2034.23 1241.24 2125.95 1252.69 2169.39 1262.67 2203.09 1270.16 2191.76 1311.9 2186.57 1310.61 2118.34 1295.29 2118.34 1295.29"/></g><g id="HATCH-123"><polygon class="cls-1" points="1910.3 1972.97 2042.86 2002.77 2036.37 2047.24 1870.63 2011.79 1875.14 1992.42 1820.61 1981.37 1826.25 1957.23 1910.3 1972.97 1910.3 1972.97"/></g><g id="HATCH-124"><polygon class="cls-1" points="2134.04 1831.19 2196.7 1840.05 2191.27 1881.9 2124.38 1877.3 2134.04 1831.19 2134.04 1831.19"/></g><g id="HATCH-125"><polygon class="cls-1" points="2655.02 1363.77 2652.22 1325.87 2649.78 1291.82 2764.94 1282.11 2764.94 1284.3 2764.58 1295.5 2763.49 1353.35 2763.49 1355.89 2758.43 1356.59 2655.02 1363.77 2655.02 1363.77"/></g><g id="HATCH-126"><polygon class="cls-1" points="1996.04 1363.77 2104.3 1353.43 2172.57 1372.06 2178.04 1373.49 2160.88 1439.1 2108.07 1424.75 2099.2 1422.43 2103.35 1397.02 2057.15 1402.37 2065.82 1414.5 2069.78 1451.4 2038.47 1449.71 2037.53 1403.71 1989.63 1408.61 1991.99 1430.45 1946.25 1433.84 1938.89 1367.96 1986.42 1364.31 1996.04 1363.77 1996.04 1363.77"/></g><g id="HATCH-127"><polygon class="cls-1" points="2069.5 1458.53 2099.34 1457.64 2107.6 1432.03 2160.16 1446.3 2151.9 1470.85 2141.39 1470.68 2137.54 1481.93 2146.27 1487.78 2134.26 1524.4 2068.56 1509.95 1954.82 1512.52 1946.56 1441.07 1992.07 1437.7 1994.23 1455.69 2038.34 1456.85 2069.5 1458.53 2069.5 1458.53"/></g><g id="HATCH-128"><polygon class="cls-1" points="2208.67 1585.53 2215.27 1535.67 2223.14 1536.6 2324.42 1548.88 2317.91 1597.98 2208.67 1585.53 2208.67 1585.53"/></g><g id="HATCH-129"><polygon class="cls-1" points="2757.84 1421.7 2767.49 1365.38 2772.79 1364.66 2772.79 1362.08 2839.58 1367.78 2870.05 1372.86 2912.34 1380.44 2914.7 1365.55 2999.85 1378.48 2994.55 1408.42 3018.01 1412.08 3012.9 1441.13 3009.87 1459.85 2960.3 1452.27 2757.84 1421.7 2757.84 1421.7"/></g><g id="HATCH-130"><polygon class="cls-1" points="2329.38 1541.59 2224.39 1528.35 2238.45 1417.49 2259.26 1419.95 2432.68 1440.59 2426.87 1492.82 2400.62 1489.63 2392.94 1549.35 2357.13 1545.15 2329.38 1541.59 2329.38 1541.59"/></g><g id="HATCH-131"><polygon class="cls-1" points="1961.85 1583.1 1989.41 1584.13 1990.52 1577.08 2014.08 1575.36 2119.09 1591.1 2111.11 1623.95 2100.54 1621.62 2096.36 1638.39 2107.03 1640.54 2105.92 1645.53 2003.6 1624.55 1981.61 1620.08 1976.97 1639.08 1949.7 1633.75 1961.85 1583.1 1961.85 1583.1"/></g><g id="HATCH-132"><polygon class="cls-1" points="2080.53 1772.65 1912.17 1737.53 1926.87 1684.41 2090.11 1721.74 2080.53 1772.65 2080.53 1772.65"/></g><g id="HATCH-133"><polygon class="cls-1" points="2885.17 1267.18 3064.61 1265.31 3065.17 1316.64 3054 1361.21 2983.45 1349.47 2982.89 1317.09 2916.25 1317.62 2916.53 1342.18 2886 1342.53 2885.17 1267.18 2885.17 1267.18"/></g><g id="HATCH-134"><polygon class="cls-1" points="1959.65 1575.51 1888 1571.34 1890.27 1523.41 1952.57 1520.85 2066.97 1518.38 2133.04 1532.28 2122.75 1584.13 2119.64 1583.44 2012.79 1567.84 1988.81 1569.54 1987.68 1576.54 1959.65 1575.51 1959.65 1575.51"/></g><g id="HATCH-135"><polygon class="cls-1" points="3034.7 1710.84 3032.6 1733.34 3148.48 1743.35 3145.14 1778.33 3183.35 1781.64 3177.33 1849.22 3175.04 1877.19 3174.09 1889.01 3168.74 1948.18 3155.93 1947.14 3145.43 1946.29 3130.52 1944.96 3129.95 1952.53 3014.35 1942.41 3012.25 1962.26 2982.16 1959.71 2983.59 1939.96 2900.67 1932.68 2906.98 1864.34 2848.7 1859.24 2848.13 1869.63 2830.74 1867.84 2831.5 1862.73 2832.46 1848.18 2847.74 1848.93 2852.52 1793.45 2838.57 1791.84 2840.1 1773.03 2852.52 1773.79 2852.52 1781.35 2880.99 1784.75 2913.47 1788.72 2919.2 1723.6 3002.13 1730.78 3004.23 1708.38 3034.7 1710.84 3034.7 1710.84"/></g><g id="HATCH-136"><polygon class="cls-1" points="2493.74 1973.07 2326.56 1953.4 2331.04 1917.26 2352.03 1769.49 2515.01 1788.59 2493.74 1973.07 2493.74 1973.07"/></g><g id="HATCH-137"><polygon class="cls-1" points="2502.61 1976.92 2523.77 1789.31 2533.05 1782.16 2647.22 1798.26 2654.65 1806.45 2650.19 1845.11 2659.47 1846.35 2665.6 1853.59 2664.86 1874.73 2655.21 1881.11 2645.37 1948.26 2657.8 1949.78 2665.04 1957.88 2659.47 2005.11 2665.04 2012.35 2660.68 2049.88 2666.71 2050.64 2673.77 2062.07 2670.24 2092.64 2660.68 2099.11 2653.16 2098.07 2541.78 2082.64 2520.06 2079.97 2514.21 2071.59 2517.65 2039.78 2524.33 2033.88 2530.46 2034.54 2502.61 1976.92 2502.61 1976.92"/></g><g id="HATCH-138"><polygon class="cls-1" points="2401.99 2127.88 2528.17 2139.98 2522.33 2180.32 2519.95 2197.06 2421.81 2187.28 2395.13 2183.84 2401.99 2127.88 2401.99 2127.88"/></g><g id="HATCH-139"><polygon class="cls-1" points="2293.6 2113.93 2339.74 2117.73 2336.58 2186.94 2284.02 2177.52 2293.6 2113.93 2293.6 2113.93"/></g><g id="HATCH-140"><polygon class="cls-1" points="2196.05 2154.48 2201.27 2110.19 2285.32 2113.44 2275.14 2176.23 2245.5 2171.29 2194.72 2163.61 2196.05 2154.48 2196.05 2154.48"/></g><g id="HATCH-141"><polygon class="cls-1" points="1899.99 2222.26 1912.79 2157.94 2011.03 2177.19 1997.69 2239.5 1899.99 2222.26 1899.99 2222.26"/></g><g id="HATCH-142"><polygon class="cls-1" points="2349.09 2118.25 2393.19 2121.7 2392.62 2126.71 2386.54 2182.97 2385.57 2190.48 2346.01 2187.37 2349.09 2118.25 2349.09 2118.25"/></g><g id="HATCH-143"><polygon class="cls-1" points="2541.68 2102.78 2543.13 2092.12 2651.96 2106.52 2646.16 2153.81 2613.51 2179.94 2604.08 2187.14 2531.89 2178.78 2537.69 2137.01 2541.68 2102.78 2541.68 2102.78"/></g><g id="HATCH-144"><polygon class="cls-1" points="2206.18 1836.64 2219.05 1753.77 2258.93 1758.4 2287.05 1761.91 2343.38 1768.57 2322.7 1914.52 2198.65 1899.72 2200.39 1883.81 2206.18 1836.64 2206.18 1836.64"/></g><g id="HATCH-145"><polygon class="cls-1" points="2167.17 2043.31 2137.35 2038.19 2126.54 2007.49 2148.16 1984.84 2177.22 1989.95 2187.86 2020.91 2167.17 2043.31 2167.17 2043.31"/></g><g id="HATCH-146"><polygon class="cls-1" points="984.59 2336.79 982.28 2396.79 885.49 2393.89 886.97 2352.02 838.34 2350.15 825.12 2332.03 936.05 2335.34 984.59 2336.79 984.59 2336.79"/></g><g id="HATCH-147"><polygon class="cls-1" points="665.63 2351.22 674.93 2363.87 687.55 2354.55 699.61 2345.8 744.21 2403.51 728.07 2415.11 785.39 2493.63 801.43 2482.03 814.43 2499.81 737.94 2556.09 707.77 2578.05 663.54 2517.78 655 2524.14 611.63 2464.73 624.45 2455.41 530.69 2327.27 561.24 2304.64 565.8 2310.44 608.69 2278.97 644.28 2327.65 646.94 2325.75 665.63 2351.22 665.63 2351.22"/></g><g id="HATCH-148"><polygon class="cls-1" points="5.09 4026.91 115.73 4057.48 98.61 4134.52 74.92 4220.31 66.72 4252.2 28.7 4245.71 5.09 4241.66 5.09 4026.91 5.09 4026.91"/></g><g id="HATCH-149"><polygon class="cls-1" points="5.09 3155.1 10.98 3155.37 12 3155.47 12.69 3155.7 12.77 3155.91 12.69 3156.14 12.43 3156.37 11.92 3156.55 11.36 3156.69 10.43 3156.69 5.09 3156.41 5.09 3155.1 5.09 3155.1"/></g><g id="HATCH-150"><polygon class="cls-1" points="4396.35 2232.53 4378.06 2224.33 4396.35 2145.56 4396.35 2232.53 4396.35 2232.53"/></g><polygon class="cls-1" points="4399.76 2807.39 4399.76 1810.52 4247.26 1981.1 4061.28 2037.58 4041.48 2068.78 3840.53 2381.41 3837.25 2386.26 3831.17 2396.82 3827.79 2402.82 3826.34 2405.92 3823.73 2411.45 3821.8 2417.84 3821.22 2425.11 3822.38 2431.6 3824.21 2438.86 3826.92 2446.42 3832.04 2454.46 3839.95 2463.37 3840.15 2463.37 3933.14 2522.18 4241.04 2706.29 4178.42 2801.12 4064.55 2731.87 3931.06 2953.49 4161.3 3093.32 4144.76 3121 4131.29 3112.8 4079.94 3198.15 4191.98 3266.43 4217.85 3223.52 4236.7 3191.98 4243.43 3180.99 4267.67 3195.55 4284.21 3167.97 4295.08 3174.53 4396.35 3006.72 4396.35 2933.43 4208.31 2819.36 4267.62 2722.19 4399.76 2807.39"/><g id="HATCH-151"><polygon class="cls-1" points="4057.12 2209.2 4045.31 2247.95 4020.46 2239.52 4032.27 2200.77 4057.12 2209.2 4057.12 2209.2"/></g><g id="HATCH-152"><polygon class="cls-1" points="4145.12 2121.04 4132.75 2165.82 4118.5 2160.49 4130.8 2115.97 4136.2 2095.95 4150.75 2101.19 4145.12 2121.04 4145.12 2121.04"/></g><g id="HATCH-153"><polygon class="cls-1" points="2264.96 2404.5 2280.8 2404.91 2274.33 2445.79 2226.55 2450.04 2241.89 2394.51 2253.26 2397.67 2246.54 2432.22 2259.23 2433.97 2264.96 2404.5 2264.96 2404.5"/></g><g id="HATCH-154"><polygon class="cls-1" points="2413.82 2195.61 2388.8 2338.53 2379.68 2337.61 2367.82 2336.88 2388 2209.41 2389.29 2199.93 2390.26 2191.93 2413.82 2195.61 2413.82 2195.61"/></g><g id="HATCH-155"><polygon class="cls-1" points="2043.15 3076.43 2034.91 3122.31 2009.83 3117.8 2016.02 3072.09 2043.15 3076.43 2043.15 3076.43"/></g><g id="HATCH-156"><path class="cls-1" d="m558.43,4188.31l-3.01-4.44-2.44-4.64-.94-2.42-1.88-4.54-.94-2.51-.56-2.61-1.13-5.12-.56-2.51-.38-5.51-.19-2.51.19-4.35,79-412.92,7.05-11.21,7.05-10.63,7.98-10.43,7.89-10.34,8.45-9.66,8.83-9.47,9.11-9.08,9.68-8.79,9.96-8.12,17.1-12.85,10.9-7.25,10.8-6.57,15.31-8.21,9.02,1.84-7.61,39.8-40.49-8.31-9.96,51.01-25.93,134.68-1.88,11.4,4.88.97-37.76,196.89-37.11-7.44-32.6,171.39-17.85-15.55h0m32.88-170.91l17.1,3.67,8.45-43.96-17.38-3.67-8.17,43.96h0Z"/></g><g id="HATCH-157"><polygon class="cls-1" points="1393.27 3448.17 1507.04 3484.18 1502.09 3506.26 1501.14 3509.29 1406.97 3484.09 1400.98 3508.1 1343.9 3492.88 1343.62 3494.35 1342.1 3499.66 1202.08 3455.68 1230.04 3393.28 1237.46 3370.65 1244.03 3373.49 1234.51 3395.11 1269.23 3409.59 1338.67 3430.76 1393.27 3448.17 1393.27 3448.17"/></g><g id="HATCH-158"><polygon class="cls-1" points="1582.29 1978.44 1622.13 1986.73 1629.41 1951.61 1635.23 1929.72 1697.63 1948.55 1671.07 2039.78 1572.65 2012.13 1582.29 1978.44 1582.29 1978.44"/></g></svg>