<?xml version="1.0" encoding="UTF-8"?><svg id="Buildings" xmlns="http://www.w3.org/2000/svg" viewBox="0 0 4404.26 4404.26"><defs></defs><g id="HATCH"><polygon class="cls-1" points="1.09 3818.97 123.39 3851.9 162.42 3862.44 114.69 4045.83 1.09 4015.25 1.09 3818.97 1.09 3818.97"/></g><g id="HATCH-2"><polygon class="cls-1" points="371.78 3886.45 317.91 4099.08 313.87 4097.86 265.75 4084.49 312.08 3901.13 306.15 3899.44 313.69 3870.35 371.78 3886.45 371.78 3886.45"/></g><g id="HATCH-3"><polygon class="cls-1" points="521.19 2596.92 567.53 2595.56 568.26 2611.21 522.16 2612.57 521.19 2596.92 521.19 2596.92"/></g><g id="HATCH-4"><polygon class="cls-1" points="520.2 2572 566.57 2570.7 567.38 2586.36 521.01 2587.72 520.2 2572 520.2 2572"/></g><g id="HATCH-5"><polygon class="cls-1" points="601.26 2910.84 597.42 2838 728.79 2831.63 732.82 2904.38 601.26 2910.84 601.26 2910.84"/></g><g id="HATCH-6"><polygon class="cls-1" points="4392.35 2763.46 4387.32 2772.22 4334.17 2744.74 4345.24 2725.04 4392.35 2749.68 4392.35 2763.46 4392.35 2763.46"/></g><g id="HATCH-7"><polygon class="cls-1" points="4392.35 2139.9 4365.27 2225.76 4392.35 2234.69 4392.35 2268.3 4355.3 2256.3 4303.59 2420.9 4262.78 2407.55 4246.6 2459.22 4219.52 2450.38 4235.7 2398.81 4195.45 2385.66 4246.6 2221.63 4196.39 2205.11 4202.22 2186.67 4189.62 2182.64 4169.03 2175.91 4183.41 2129.82 4183.41 2129.53 4204.01 2136.25 4228.93 2057.89 4259.58 2044.92 4308.85 2024.18 4392.35 2051.65 4392.35 2139.9 4392.35 2139.9"/></g><g id="HATCH-8"><polygon class="cls-1" points="4392.35 2545.57 4332.05 2524.08 4329.85 2523.52 4330.19 2522.76 4391.84 2309.57 4392.35 2309.86 4392.35 2545.57 4392.35 2545.57"/></g><g id="HATCH-9"><polygon class="cls-1" points="4121.98 2111.99 4108.99 2156.73 4086.01 2148.96 4099.24 2104.39 4105.19 2084.01 4127.69 2091.87 4121.98 2111.99 4121.98 2111.99"/></g><g id="HATCH-10"><polygon class="cls-1" points="4392.35 1879.7 4321.37 1964.67 4320.02 1966.43 4282.01 1932.8 4303.17 1907.5 4392.35 1800.48 4392.35 1879.7 4392.35 1879.7"/></g><g id="HATCH-11"><polygon class="cls-1" points="4169.9 2126.77 4156.71 2172.15 4133.17 2163.94 4146.29 2118.91 4152.25 2098.94 4175.63 2107.15 4169.9 2126.77 4169.9 2126.77"/></g><g id="HATCH-12"><polygon class="cls-1" points="4188.2 1650.27 4211.78 1653.75 4206.98 1702.32 4186.22 1704.22 4188.2 1650.27 4188.2 1650.27"/></g><g id="HATCH-13"><polygon class="cls-1" points="4214.67 2646.15 4295.64 2694.06 4318.08 2707.36 4298.45 2739.21 4255.93 2713.93 4233.21 2700.62 4194.86 2678.09 4214.67 2646.15 4214.67 2646.15"/></g><g id="HATCH-14"><polygon class="cls-1" points="4021.55 2505.57 4138.1 2572.46 4118.68 2604.13 4076.34 2579.69 4073.41 2584.41 3999.56 2541.78 4021.55 2505.57 4021.55 2505.57"/></g><g id="HATCH-15"><polygon class="cls-1" points="4170.5 1815.16 4215.23 1805.11 4221.98 1803.63 4231.43 1844 4187.21 1854.05 4180.29 1855.62 4170.5 1815.16 4170.5 1815.16"/></g><g id="HATCH-16"><polygon class="cls-1" points="4021.66 1969.89 4049.46 1963.01 4049.46 1935.39 4088.83 1928.15 4122.37 1922.07 4120.33 1911.88 4175.73 1901.87 4187.22 1960.06 4094.58 1976.95 4074.66 1979.81 4049.46 1983.39 4051.77 2001.26 4040.19 2002.78 4036.39 2002.78 4034.73 2000.91 4033.8 1998.94 4021.66 1969.89 4021.66 1969.89"/></g><g id="HATCH-17"><polygon class="cls-1" points="4129.17 1650.98 4079.37 1644.15 4066.7 1530.54 4066.17 1525.53 4115.09 1524.99 4119.84 1524.71 4121.77 1547.93 4131.89 1566.5 4142.89 1586.25 4151.95 1587.25 4149.23 1613.2 4124.41 1610.56 4129.17 1650.98 4129.17 1650.98"/></g><g id="HATCH-18"><polygon class="cls-1" points="4072.26 1654.65 4080.09 1653.61 4130.45 1659.62 4163.55 1658.74 4168.36 1689.92 4134.37 1690.48 4075.11 1697.94 4072.26 1654.65 4072.26 1654.65"/></g><g id="HATCH-19"><polygon class="cls-1" points="4212.57 1797.63 4167.86 1807.68 4161.28 1809.25 4151.83 1768.79 4202.95 1757.25 4212.57 1797.63 4212.57 1797.63"/></g><g id="HATCH-20"><polygon class="cls-1" points="3881.67 2451.66 3905.28 2408.21 3921.97 2418.22 3898.35 2461.67 3881.67 2451.66 3881.67 2451.66"/></g><g id="HATCH-21"><polygon class="cls-1" points="4179.74 2790.78 4206.7 2745.24 4211.78 2736.42 4227.45 2709.86 4229.35 2706.47 4250.88 2719.84 4248.64 2723.23 4233.31 2749.7 4227.97 2758.61 4200.92 2804.15 4179.74 2790.78 4179.74 2790.78"/></g><g id="HATCH-22"><polygon class="cls-1" points="3960.56 1794.46 4021.92 1784.37 4029.6 1833.37 4036.67 1832.29 4040.25 1870.31 4034.23 1871.03 4035.89 1890.12 3989.8 1894.72 3987.88 1875.17 3982.99 1876.07 3976.88 1842.11 3967.98 1843.55 3960.56 1794.46 3960.56 1794.46"/></g><g id="HATCH-23"><polygon class="cls-1" points="3987.59 2013.28 3983.26 2036.23 3980.13 2052.4 3975.45 2051.4 3912.12 2032.59 3920.19 1998.44 3987.59 2013.28 3987.59 2013.28"/></g><g id="HATCH-24"><polygon class="cls-1" points="4392.35 3003.72 4291.08 3171.53 4280.21 3164.97 4263.67 3192.55 4239.43 3177.99 4232.7 3188.98 4213.85 3220.52 4187.98 3263.43 4075.94 3195.15 4127.29 3109.8 4140.76 3118 4157.3 3090.32 3927.06 2950.49 4060.55 2728.87 4174.42 2798.12 4198.08 2812.58 4392.35 2930.43 4392.35 3003.72 4392.35 3003.72"/></g><g id="HATCH-25"><polygon class="cls-1" points="4241.35 1850 4250.88 1890.37 4199.4 1901.99 4189.95 1861.53 4234.17 1851.48 4241.35 1850 4241.35 1850"/></g><g id="HATCH-26"><polygon class="cls-1" points="4132.3 2323.15 4033.94 2291.26 4047.16 2249.36 4061.19 2205.05 4076.7 2155.92 4082.57 2157.78 4109.18 2166.12 4126.61 2171.87 4153.77 2180.67 4175.24 2187.44 4132.3 2323.15 4132.3 2323.15"/></g><g id="HATCH-27"><polygon class="cls-1" points="3158.12 3640.19 3110.6 3635.45 3111.12 3629.98 3089.64 3627.88 3094.53 3574.98 3116.02 3577.08 3118.81 3548.17 3122.31 3510.69 3169.82 3515.52 3158.12 3640.19 3158.12 3640.19"/></g><g id="HATCH-28"><polygon class="cls-1" points="3098.3 3813.31 3088.63 3870.07 3012.2 3856.9 2974.38 4078.34 2985.89 4080.28 2971.96 4160.88 2853.74 4140.63 2867.67 4059.65 2869.22 4051.8 2884.89 4054.51 2921.17 3842.95 2869.41 3834.13 2831.1 3827.45 2827.62 3847.31 2717.14 3829 2751 3625.77 2478.57 3582.56 2462.51 3580.14 2453.42 3578.69 2461.35 3528.51 2472.77 3455.28 2557.51 3468.65 2553.84 3490.73 2767.64 3524.44 2769.38 3512.33 2880.05 3530.64 2874.63 3564.55 2870.38 3588.96 2834.68 3805.56 2874.25 3812.34 2900.95 3816.89 2906.95 3780.37 3098.3 3813.31 3098.3 3813.31"/></g><g id="HATCH-29"><polygon class="cls-1" points="2899.72 3812.02 2880.77 3808.51 2885.1 3780.26 2903.98 3783.85 2899.72 3812.02 2899.72 3812.02"/></g><g id="HATCH-30"><polygon class="cls-1" points="2803.28 3445.71 2800.97 3461 2704.91 3448.23 2704.35 3453.79 2640.87 3445.19 2649.38 3384.74 2669.55 3387.52 2667.33 3402.2 2680.66 3404.02 2712.77 3408.36 2733.04 3410.88 2760.25 3414.96 2777.83 3417.14 2777.55 3421.22 2774.68 3441.19 2803.28 3445.71 2803.28 3445.71"/></g><g id="HATCH-31"><polygon class="cls-1" points="3187.73 3392.34 3182.53 3433 3104.96 3426.44 3105.49 3422.94 3108.13 3403.88 3114.56 3352.12 3191.34 3362 3187.73 3392.34 3187.73 3392.34"/></g><g id="HATCH-32"><polygon class="cls-1" points="2029.18 3494.81 2040.99 3417.25 2036.67 3416.68 2052.33 3286.69 2160.64 3300.97 2161.8 3294.31 2255.42 3307.15 2257.53 3290.5 2284.9 3294.21 2282.41 3310.86 2377.09 3323.62 2413.29 3328.56 2406.86 3372.34 2429.13 3375.48 2425.87 3398.98 2448.72 3402.03 2442.67 3445.99 2440.47 3460.74 2415.11 3457.12 2380.93 3452.37 2357.11 3449.13 2357.88 3441.42 2304.11 3434.67 2301.23 3455.12 2300.75 3458.93 2198.09 3445.61 2200.78 3420.68 2147.58 3414.21 2057.7 3402.79 2055.01 3420.87 2098.8 3427.43 2092.18 3470.35 2129.34 3476.06 2117.43 3556.66 2080.17 3551.24 2073.64 3595.29 2030.43 3588.92 2015.36 3586.82 2029.18 3494.81 2029.18 3494.81"/></g><g id="HATCH-33"><polygon class="cls-1" points="2413.5 3319.92 2385.43 3316.22 2388.86 3293.77 2416.7 3297.32 2413.5 3319.92 2413.5 3319.92"/></g><g id="HATCH-34"><polygon class="cls-1" points="2149.96 3418.34 2195.06 3422.96 2192.78 3440.76 2168.85 3438.79 2146.71 3436.55 2149.96 3418.34 2149.96 3418.34"/></g><g id="HATCH-35"><polygon class="cls-1" points="2414.34 3460.61 2412.47 3471.9 2387.2 3468.79 2388.78 3457.73 2414.34 3460.61 2414.34 3460.61"/></g><g id="HATCH-36"><polygon class="cls-1" points="2154.41 4105.96 2154.56 4094.27 2175.46 4082.65 2193.69 4095.8 2193.69 4096.77 2192.9 4117.97 2192.59 4118.05 2173.73 4128.46 2172.48 4127.65 2165.41 4123.86 2153.78 4116.44 2153.78 4114.59 2154.09 4107.97 2154.41 4105.96 2154.41 4105.96"/></g><g id="HATCH-37"><polygon class="cls-1" points="4018.03 3397.09 4051.83 3339.63 4084.56 3282.17 4094.83 3288.46 4061.38 3346.37 4108.63 3376.12 4090.4 3407.9 4107.3 3418.52 4095.71 3439.58 4078.37 3428.68 4075.54 3433.3 4018.03 3397.09 4018.03 3397.09"/></g><g id="HATCH-38"><polygon class="cls-1" points="3503.85 3452.95 3499.53 3558.33 3487.08 3557.96 3487.43 3579.75 3456.32 3579.65 3455.28 3606.98 3432.46 3606.05 3430.73 3554.95 3431.77 3524.62 3433.93 3475.78 3437.99 3389.65 3487.77 3395.01 3486.04 3452.3 3503.85 3452.95 3503.85 3452.95"/></g><g id="HATCH-39"><polygon class="cls-1" points="4134.43 3429.76 4117.15 3419.04 4145.01 3372.16 4170.13 3387.57 4134.43 3429.76 4134.43 3429.76"/></g><g id="HATCH-40"><polygon class="cls-1" points="1735.07 4047.84 1745.13 4013.49 1752.27 4014.52 1817.12 4023.57 1870.27 4031.09 1862.04 4080.22 1791.78 4070.05 1793.43 4056.38 1735.07 4047.84 1735.07 4047.84"/></g><g id="HATCH-41"><path class="cls-1" d="m1657.96,4049.25l-74.18-16.22,15.72-83.79,91.57,15.41,53.65,12.16-8.32,31.35-10.17,36.22-4.07,15.5-64.19-10.63h0m50.87-31.17l6.1-34.42-26.82-6.4-5.83,36.31,26.55,4.5h0Z"/></g><g id="HATCH-42"><polygon class="cls-1" points="1610.98 3887.54 1661.66 3895.25 1659.45 3907.5 1703.13 3914.77 1699.99 3931.66 1751.59 3943.04 1745.14 3969.3 1691.7 3957.49 1600.48 3942.52 1610.98 3887.54 1610.98 3887.54"/></g><g id="HATCH-43"><polygon class="cls-1" points="1975.74 3756.8 1946.29 3752.2 1950.07 3732.22 1979.52 3736.76 1975.74 3756.8 1975.74 3756.8"/></g><g id="HATCH-44"><polygon class="cls-1" points="1657.65 3632.5 1662.38 3613.74 1739.81 3624.25 1737.18 3636.46 1669.74 3627.25 1667.99 3634 1657.65 3632.5 1657.65 3632.5"/></g><g id="HATCH-45"><polygon class="cls-1" points="1825.77 3394.97 1809.31 3462.47 1790.59 3458.42 1707.32 3440.23 1701.86 3439.11 1709.32 3404.19 1779.13 3419.37 1798.95 3423.68 1807.13 3390.83 1825.77 3394.97 1825.77 3394.97"/></g><g id="HATCH-46"><polygon class="cls-1" points="1707.76 3385.8 1713.39 3358.41 1765.07 3369.49 1763.45 3376.46 1770.7 3377.96 1773.6 3399.89 1707.76 3385.8 1707.76 3385.8"/></g><g id="HATCH-47"><polygon class="cls-1" points="1810.99 3328 1809.27 3335.21 1837.07 3341.3 1826.62 3385.55 1808 3381.37 1775.29 3374.16 1767.57 3372.51 1769.29 3364.86 1714.24 3352.69 1723.33 3308.7 1810.99 3328 1810.99 3328"/></g><g id="HATCH-48"><polygon class="cls-1" points="1591.75 3456.97 1460.29 3419.02 1463.53 3407.44 1465.75 3397.7 1477.98 3368.48 1495.58 3375.28 1503.18 3344.87 1511.52 3312.43 1625.84 3340.92 1591.75 3456.97 1591.75 3456.97"/></g><g id="HATCH-49"><polygon class="cls-1" points="1572.87 4095.23 1635.47 4105.98 1628.42 4141.62 1610.45 4139.36 1565.31 4132.73 1572.87 4095.23 1572.87 4095.23"/></g><g id="HATCH-50"><polygon class="cls-1" points="1714.89 3817.42 1671.16 3810.93 1625.82 3804.11 1633.84 3762.87 1653.35 3762.29 1706.79 3771.18 1722.91 3773.76 1714.89 3817.42 1714.89 3817.42"/></g><g id="HATCH-51"><polygon class="cls-1" points="1657.47 3639.8 1668.62 3641.68 1670.51 3633.19 1743.28 3644.77 1865.76 3664.31 1905.64 3670.57 1899.4 3701.69 1852.15 3694.06 1728.35 3674.43 1652.74 3662.26 1657.47 3639.8 1657.47 3639.8"/></g><g id="HATCH-52"><polygon class="cls-1" points="1523.55 4392.73 1531.29 4340.07 1557.4 4178.74 1628.74 4189.9 1608.88 4318.58 1710.33 4334.26 1701.29 4392.73 1523.55 4392.73 1523.55 4392.73"/></g><g id="HATCH-53"><polygon class="cls-1" points="1823.19 4017.19 1832.02 3980.27 1903.91 3990.94 1910.19 3952.97 1948.87 3958.92 1936.31 4034.34 1876.06 4024.89 1823.19 4017.19 1823.19 4017.19"/></g><g id="HATCH-54"><polygon class="cls-1" points="1758.65 4392.73 1760.83 4374.04 1816.83 4377.63 1815.32 4392.73 1758.65 4392.73 1758.65 4392.73"/></g><g id="HATCH-55"><polygon class="cls-1" points="3422.73 3520.83 3406.73 3520 3408.82 3471.38 3352.14 3465.24 3358.57 3410.75 3362.4 3380.02 3428.99 3389.01 3424.9 3473.13 3422.73 3520.83 3422.73 3520.83"/></g><g id="HATCH-56"><polygon class="cls-1" points="2307.82 3453.07 2310.26 3439.46 2355.79 3443.95 2355.14 3449.08 2353.67 3457.56 2307.82 3453.07 2307.82 3453.07"/></g><g id="HATCH-57"><polygon class="cls-1" points="2980.3 3376.21 2930.29 3369.9 2936.79 3329.43 2986.31 3335.66 2980.3 3376.21 2980.3 3376.21"/></g><g id="HATCH-58"><polygon class="cls-1" points="2721.25 3299.76 2714.38 3351.98 2710.95 3372.97 2652.06 3363.87 2659.45 3315.42 2661.51 3302.47 2663.05 3291.8 2721.25 3299.76 2721.25 3299.76"/></g><g id="HATCH-59"><polygon class="cls-1" points="2678.61 4065.88 2609.13 4059.49 2613.72 4015.65 2682.93 4022.04 2678.61 4065.88 2678.61 4065.88"/></g><g id="HATCH-60"><polygon class="cls-1" points="2824.21 3313.68 2817.69 3360.9 2808.76 3359.64 2802 3418.75 2783.21 3416.23 2783.46 3411.99 2767.6 3409.74 2781.62 3307.91 2781.79 3307.91 2824.21 3313.68 2824.21 3313.68"/></g><g id="HATCH-61"><polygon class="cls-1" points="2861.78 3319.1 2857.05 3367.3 2847.84 3366.29 2845.13 3390.11 2854.43 3391.31 2846.32 3440.54 2853.08 3441.64 2855.44 3441.92 2862.04 3443.12 2860.68 3454.02 2861.02 3454.02 2868.96 3455.22 2869.98 3455.5 2872.35 3455.77 2870.49 3470.92 2858.66 3469.07 2810.82 3461.59 2812.94 3445.34 2816.06 3422.99 2824.35 3362.59 2830.94 3314.2 2834.06 3314.66 2861.78 3319.1 2861.78 3319.1"/></g><g id="HATCH-62"><polygon class="cls-1" points="3421.79 3650.8 3314.82 3644.38 3315.19 3639.37 3287.79 3637.76 3290.14 3596.94 3231.57 3591.37 3192.4 3587.78 3209.91 3399.08 3231.57 3401.07 3260.39 3403.81 3291.27 3406.83 3337.98 3411.08 3325.17 3550.64 3342.22 3551.59 3420.85 3556.31 3422.73 3607.71 3423.49 3623.21 3421.79 3650.8 3421.79 3650.8"/></g><g id="HATCH-63"><polygon class="cls-1" points="4081.91 3281.69 4047.9 3338.04 4012.79 3394.39 3953.06 3358.7 3956 3354.17 3936.88 3342.84 3949.56 3322.73 3968.22 3333.87 3987.43 3302.8 4037.98 3332.6 4072.53 3275.99 4081.91 3281.69 4081.91 3281.69"/></g><g id="HATCH-64"><polygon class="cls-1" points="3105.67 3351.63 3099.33 3406.31 3096.72 3426.44 3096.72 3426.44 3084.72 3425.14 3083.42 3439.74 3093.76 3440.66 3092.37 3455.99 3088.03 3500.69 3044.57 3495.7 3028.92 3493.76 3049.78 3343.97 3105.67 3351.63 3105.67 3351.63"/></g><g id="HATCH-65"><polygon class="cls-1" points="3022.32 3493.32 2995.41 3490.09 3001.46 3431.73 2983.04 3429.61 2988.34 3383.25 2994.4 3336.99 3042.5 3343.55 3022.32 3493.32 3022.32 3493.32"/></g><g id="HATCH-66"><polygon class="cls-1" points="2723.39 3354.43 2729.95 3300.74 2732.09 3301.01 2774.1 3307.31 2774.1 3307.31 2760.32 3408.93 2736.19 3404.7 2742.26 3357.22 2723.39 3354.43 2723.39 3354.43"/></g><g id="HATCH-67"><polygon class="cls-1" points="2921.53 3375.01 2916.34 3421.65 2899.63 3419.26 2893.46 3473.18 2879.55 3471.06 2881.36 3455.94 2879.05 3455.67 2878.07 3455.39 2883.42 3416.21 2889.59 3370.4 2888.27 3370.22 2876.25 3369.02 2880.86 3321.27 2922.68 3328.19 2927.95 3328.93 2921.53 3375.01 2921.53 3375.01"/></g><g id="HATCH-68"><polygon class="cls-1" points="2445.58 964.88 2438.97 1017.31 2416.63 1014.76 2345.16 999.13 2353.46 953.24 2404.84 960.12 2445.58 964.88 2445.58 964.88"/></g><g id="HATCH-69"><polygon class="cls-1" points="2506.08 950.41 2411.41 936.99 2410.85 940.21 2356.45 932.96 2371.8 848.22 2378.49 849.2 2415.69 854.93 2512.22 869.34 2533.61 872.47 2526.44 917.57 2514.26 915.69 2506.08 950.41 2506.08 950.41"/></g><g id="HATCH-70"><polygon class="cls-1" points="2441.64 1024.68 2501.48 1028.33 2500.27 1049.09 2485.19 1047.53 2484.45 1063.77 2421.17 1060.56 2416.33 1080.97 2383.02 1077.33 2322.07 1063.08 2336.49 1004.52 2343.94 1006.08 2418.38 1022.07 2441.64 1024.68 2441.64 1024.68"/></g><g id="HATCH-71"><polygon class="cls-1" points="2124.7 1078.28 2145.32 1051.48 2168.48 1067.81 2192 1080.2 2240.84 1084.83 2232.88 1131.27 2209.45 1123.77 2161.24 1106.31 2124.7 1078.28 2124.7 1078.28"/></g><g id="HATCH-72"><polygon class="cls-1" points="2158.49 991.92 2159.39 987.1 2198.12 970.33 2260.2 979.14 2254.92 1005.62 2158.49 991.92 2158.49 991.92"/></g><g id="HATCH-73"><polygon class="cls-1" points="2172.25 1063.57 2178.32 1037.43 2247.72 1048.44 2241.65 1079.01 2194.8 1074.81 2172.25 1063.57 2172.25 1063.57"/></g><g id="HATCH-74"><polygon class="cls-1" points="2159.48 981.85 2161.1 973.14 2231.4 935.95 2267.37 940.63 2260.8 973.46 2198.41 964.18 2159.48 981.85 2159.48 981.85"/></g><g id="HATCH-75"><polygon class="cls-1" points="2163.07 1170.71 2220.9 1186.38 2204.78 1242.48 2171.69 1236.47 2013.49 1206.82 2023.8 1169.56 2063.72 1174.52 2068.88 1151.69 2163.07 1170.71 2163.07 1170.71"/></g><g id="HATCH-76"><polygon class="cls-1" points="2305.36 1140.59 2368.65 1153.35 2364.84 1171.16 2421.17 1182.1 2461.45 1179.15 2464.05 1201.56 2419.13 1210.68 2393.89 1210.5 2392.96 1216.84 2366.61 1213.89 2332.36 1212.85 2333.01 1195.13 2293.48 1190.53 2305.36 1140.59 2305.36 1140.59"/></g><g id="HATCH-77"><polygon class="cls-1" points="2676.04 1100.93 2710.51 1096.6 2734.39 1093.63 2735.4 1145.31 2713.62 1148.74 2717.57 1200.51 2683.1 1205.74 2676.88 1112.21 2676.04 1100.93 2676.04 1100.93"/></g><g id="HATCH-78"><polygon class="cls-1" points="2879.97 1111.88 2927.95 1109.44 2926.14 1186.06 2876.84 1187.37 2879.97 1111.88 2879.97 1111.88"/></g><g id="HATCH-79"><polygon class="cls-1" points="2221.44 1180.2 2163.7 1164.06 2069.66 1144.46 2041.87 1138.63 2031.76 1136.44 2038.97 1110.09 2054.78 1051.28 2090.71 1058.21 2120.28 1079.46 2158.09 1108.72 2207.96 1126.96 2232.2 1134.8 2221.44 1180.2 2221.44 1180.2"/></g><g id="HATCH-80"><polygon class="cls-1" points="2534.17 1242.68 2507.22 1247 2500.53 1199.28 2493.31 1147.51 2497.31 1146.96 2493.74 1122.59 2491.83 1109.99 2497.31 1109.17 2513.31 1106.59 2545.48 1101.53 2549.47 1100.8 2568.78 1237.16 2534.17 1242.68 2534.17 1242.68"/></g><g id="HATCH-81"><polygon class="cls-1" points="2175.33 1030.01 2127.06 1023.23 2130.52 1004.89 2154.2 1008.32 2156.21 998.04 2254.4 1012.31 2248.21 1041.09 2175.33 1030.01 2175.33 1030.01"/></g><g id="HATCH-82"><polygon class="cls-1" points="2320.08 1070.74 2376.42 1084.94 2369.54 1120.18 2364.72 1145.03 2306.05 1132.3 2320.08 1070.74 2320.08 1070.74"/></g><g id="HATCH-83"><polygon class="cls-1" points="2928.25 1099.78 2880.58 1102.19 2882.86 1049.32 2882.21 1031.14 2929.72 1044.84 2928.25 1099.78 2928.25 1099.78"/></g><g id="HATCH-84"><polygon class="cls-1" points="2741.13 1093.13 2787.26 1087.54 2788.54 1190.3 2723.98 1200.04 2719.95 1148.26 2742.16 1144.83 2741.13 1093.13 2741.13 1093.13"/></g><g id="HATCH-85"><polygon class="cls-1" points="2798.48 1050.79 2836.78 1051.43 2831.37 1188.43 2798.25 1189.43 2797.07 1085.06 2798.48 1050.79 2798.48 1050.79"/></g><g id="HATCH-86"><polygon class="cls-1" points="3131.51 2752.26 3127.29 2809.85 3092.78 2806.89 3096.84 2749.31 3131.51 2752.26 3131.51 2752.26"/></g><g id="HATCH-87"><polygon class="cls-1" points="2425.6 2397.42 2329.73 2395.42 2333.39 2361.25 2370.66 2363.94 2369.06 2369.18 2428.09 2372.79 2425.6 2397.42 2425.6 2397.42"/></g><g id="HATCH-88"><polygon class="cls-1" points="2885.31 2242.32 2875.06 2323.64 2859.83 2321.62 2863.66 2289.9 2836.96 2286.37 2843.31 2236.68 2885.31 2242.32 2885.31 2242.32"/></g><g id="HATCH-89"><polygon class="cls-1" points="2983.73 2336.46 2993.93 2255.54 3035.03 2260.89 3029.12 2310.42 3002.64 2306.92 2999.11 2338.48 2983.73 2336.46 2983.73 2336.46"/></g><g id="HATCH-90"><polygon class="cls-1" points="3081.7 2458.82 3097.09 2460.01 3098.92 2440.53 3133.02 2443.18 3131.28 2462.75 3214.03 2469.51 3205.42 2574.75 3153.64 2570.64 3155.75 2547.23 3075.1 2540.65 3081.7 2458.82 3081.7 2458.82"/></g><g id="HATCH-91"><polygon class="cls-1" points="2750.11 2225.92 2746.9 2254.45 2723.39 2251.6 2719.35 2298.75 2718.8 2305.07 2762.51 2308.38 2759.57 2363.04 2619.25 2355.7 2621.82 2297.92 2655.98 2299.94 2660.85 2225.83 2660.85 2224.64 2722.56 2228.13 2723.02 2222.53 2731.29 2223.54 2750.11 2225.92 2750.11 2225.92"/></g><g id="HATCH-92"><polygon class="cls-1" points="2810.24 2823.2 2816.43 2755.59 2830.46 2756.88 2847.22 2758.44 2851.5 2710.58 2866.53 2711.96 2868.54 2690.56 2912.08 2697.54 2923.2 2706.63 2927.75 2719.68 2923.56 2766.34 2921.56 2787.74 2937.77 2789.3 2933.77 2834.41 2810.24 2823.2 2810.24 2823.2"/></g><g id="HATCH-93"><polygon class="cls-1" points="2417.58 2192.86 2515.33 2203.4 2514.79 2208.94 2498.22 2351.45 2389.36 2336.47 2417.58 2192.86 2417.58 2192.86"/></g><g id="HATCH-94"><polygon class="cls-1" points="2171.22 2460.3 2108.39 2443.33 2139.81 2330.11 2266.58 2369.06 2258.82 2388.13 2258.54 2398.08 2252.17 2430.37 2238.03 2428.46 2245.51 2390.6 2232.86 2387.13 2215.76 2447.98 2177.69 2437.58 2171.22 2460.3 2171.22 2460.3"/></g><g id="HATCH-95"><polygon class="cls-1" points="2074.96 2949.74 2023.9 2908.74 2060.26 2851.87 2103.14 2885.83 2110.18 2890.56 2074.96 2949.74 2074.96 2949.74"/></g><g id="HATCH-96"><polygon class="cls-1" points="2222.16 2564.76 2186.69 2542.15 2198.86 2482.42 2206.57 2478.74 2222.92 2479.5 2307.37 2496.74 2309.08 2484.87 2418.06 2506.73 2427.38 2407.42 2488.9 2413.55 2475.12 2578.71 2464.27 2579.27 2449.06 2641.36 2296.91 2606.03 2302.23 2580.87 2222.16 2564.76 2222.16 2564.76"/></g><g id="HATCH-97"><polygon class="cls-1" points="2148.35 2891.46 2373.76 2926.53 2358.64 3020.59 2208.1 2997.22 2193.64 3088.76 2065.75 3068.84 2072.79 3023.58 2110.67 3029.57 2116.57 2992.54 2131.79 2994.88 2148.35 2891.46 2148.35 2891.46"/></g><g id="HATCH-98"><polygon class="cls-1" points="3183.46 2746.68 3174.32 2745.96 3177.42 2703.62 3223.27 2707.09 3220 2749.43 3183.46 2746.68 3183.46 2746.68"/></g><g id="HATCH-99"><polygon class="cls-1" points="3180.22 2813.49 3184.28 2756.09 3219.34 2758.95 3215.11 2816.53 3180.22 2813.49 3180.22 2813.49"/></g><g id="HATCH-100"><polygon class="cls-1" points="3596.11 2255.64 3630.97 2258.35 3627.07 2307.04 3592.44 2301.12 3596.11 2255.64 3596.11 2255.64"/></g><g id="HATCH-101"><polygon class="cls-1" points="3617.57 2871.57 3539.33 2862.38 3529.74 2946.82 3477.68 2940.73 3459.94 3096.17 3469.53 3097.23 3468.37 3106.33 3574.42 3118.9 3564.26 3206.54 3519.58 3201.22 3518.43 3211.95 3446.8 3203.54 3418.32 3200.25 3351.39 3192.32 3352.16 3187.19 3241.13 3174.13 3252.06 3080.98 3321.29 3089.11 3329.63 3016.08 3336.24 2958.24 3341.61 2911.32 3345.83 2876.31 3337.78 2875.44 3341.81 2839.26 3315.25 2836.07 3336.82 2650.06 3311.12 2646.97 3317.64 2590.38 3343.44 2593.57 3345.64 2573.55 3647.87 2609.05 3617.57 2871.57 3617.57 2871.57"/></g><g id="HATCH-102"><polygon class="cls-1" points="3633.1 2316.25 3640.86 2317.91 3638.64 2327.34 3742.38 2348.47 3734.07 2385.22 3698.82 2389.76 3587.23 2367.06 3592.13 2309.97 3633.1 2316.25 3633.1 2316.25"/></g><g id="HATCH-103"><polygon class="cls-1" points="2662.98 3158.03 2606.35 3143.93 2612.26 3119.12 2550.74 3104.36 2550.19 3104.17 2561.53 2939.11 2652.19 2956.22 2642.42 3021.64 2703.56 3036.49 2674.7 3160.57 2662.98 3158.03 2662.98 3158.03"/></g><g id="HATCH-104"><polygon class="cls-1" points="3824.51 2988.09 3800.37 3034.33 3723.3 2995.38 3747.62 2949.23 3824.51 2988.09 3824.51 2988.09"/></g><g id="HATCH-105"><polygon class="cls-1" points="3819.77 3274.96 3853.12 3218.16 3886.28 3160.16 3895.83 3166.16 3862.76 3224.16 3909.98 3253.63 3891.76 3285.67 3909.45 3296.67 3897.6 3317.17 3880.18 3306.27 3877.44 3310.89 3819.77 3274.96 3819.77 3274.96"/></g><g id="HATCH-106"><polygon class="cls-1" points="1856.69 2281.11 1867.22 2222.24 1893.3 2226.62 1992.49 2243.87 1974.92 2304.58 1909.58 2287.33 1856.69 2281.11 1856.69 2281.11"/></g><g id="HATCH-107"><polygon class="cls-1" points="2935.42 2248.58 2928.82 2298.02 2900.76 2294.33 2897.13 2325.8 2882.93 2323.88 2893.33 2242.97 2935.42 2248.58 2935.42 2248.58"/></g><g id="HATCH-108"><polygon class="cls-1" points="3159.88 2313.05 3164.93 2275.58 3226.06 2282.56 3251.76 2285.47 3246.8 2322.86 3226.06 2320.51 3159.88 2313.05 3159.88 2313.05"/></g><g id="HATCH-109"><polygon class="cls-1" points="2170.5 3226.27 2163.8 3260.29 2127.45 3253.26 2133.91 3219.4 2170.5 3226.27 2170.5 3226.27"/></g><g id="HATCH-110"><polygon class="cls-1" points="1964.58 3189.59 1952.59 3259.6 1832.14 3248.3 1756.68 3241.06 1764.46 3173.79 1768.59 3170.96 1964.21 3189.59 1964.58 3189.59 1964.58 3189.59"/></g><g id="HATCH-111"><polygon class="cls-1" points="3873.54 3153.87 3883.65 3159.67 3849.18 3216.56 3814.53 3272.27 3754.41 3237.21 3757.26 3232.5 3738.23 3221.45 3750.64 3201.25 3769.49 3212.39 3788.61 3181.05 3839.16 3210.76 3873.54 3153.87 3873.54 3153.87"/></g><g id="HATCH-112"><polygon class="cls-1" points="2012.56 2624.84 1960.44 2595.83 1984.15 2526.41 2017.53 2506.35 2089.61 2527.44 2088.68 2530.42 2168.73 2582.21 2139.67 2695.1 2085.21 2681.1 2095.05 2644.44 2012.56 2624.84 2012.56 2624.84"/></g><g id="HATCH-113"><polygon class="cls-1" points="2747.6 2870.46 2672.11 2860.85 2694.52 2776.7 2705.92 2739.85 2706.56 2735.42 2707.95 2724.11 2736.21 2728.17 2732.87 2743.81 2759.73 2747.67 2769.92 2647.22 2771.41 2635.35 2785.3 2637.61 2823.28 2644.11 2837.17 2646.47 2834.77 2665.03 2822.91 2756.34 2808.64 2755.02 2802.35 2824.38 2767.89 2815.99 2752.23 2826.64 2747.6 2870.46 2747.6 2870.46"/></g><g id="HATCH-114"><polygon class="cls-1" points="3150.43 2310.97 3063.5 2301.08 3068.47 2263.69 3155.48 2273.51 3150.43 2310.97 3150.43 2310.97"/></g><g id="HATCH-115"><polygon class="cls-1" points="2985.91 2254.89 2975.82 2336.22 2961.17 2334.28 2964.83 2302.47 2937.56 2298.95 2944.07 2249.25 2985.91 2254.89 2985.91 2254.89"/></g><g id="HATCH-116"><polygon class="cls-1" points="2419.16 3280.06 2417.96 3288.68 2389.95 3284.9 2394.6 3255.26 2422 3259.04 2420.95 3266.3 2419.16 3280.06 2419.16 3280.06"/></g><g id="HATCH-117"><polygon class="cls-1" points="2591.98 2559.07 2588.84 2603.73 2542.62 2589.98 2558.11 2369.4 2604.93 2373.55 2600.7 2434.13 2597.82 2474.65 2591.98 2559.07 2591.98 2559.07"/></g><g id="HATCH-118"><polygon class="cls-1" points="3136.2 2810.29 3140.43 2752.75 3166.56 2754.85 3175.32 2755.61 3171.26 2812.99 3136.2 2810.29 3136.2 2810.29"/></g><g id="HATCH-119"><polygon class="cls-1" points="2959.19 3113.51 2952.19 3184.64 2947.16 3237.3 2869.19 3229.3 2872.52 3194.84 2852.58 3192.82 2855.9 3157.07 2910.15 3162.67 2917.43 3092.37 2948.23 3095.31 2946.89 3112.22 2959.19 3113.51 2959.19 3113.51"/></g><g id="HATCH-120"><polygon class="cls-1" points="2834.62 2235.52 2827.6 2284.86 2827.25 2284.86 2824.37 2307.34 2765.46 2300.43 2726.34 2295.61 2730.29 2250.66 2753.32 2253.37 2756.46 2226.17 2834.62 2235.52 2834.62 2235.52"/></g><g id="HATCH-121"><polygon class="cls-1" points="2238.32 2246.38 2306.16 2267.49 2348.61 2280.63 2324.91 2353.77 2321.06 2394.87 2280.11 2393.85 2262.21 2393.39 2262.49 2383.3 2270.37 2363.95 2141.79 2324.42 2159.41 2231.57 2238.32 2246.38 2238.32 2246.38"/></g><g id="HATCH-122"><polygon class="cls-1" points="2159.39 2726.34 2143.95 2724.96 2147.81 2697.18 2175.01 2586.22 2209.74 2609.33 2227.28 2614.56 2213.07 2692.23 2211.15 2703.96 2163.78 2696.26 2159.39 2726.34 2159.39 2726.34"/></g><g id="HATCH-123"><polygon class="cls-1" points="2154.59 2797.55 2107.33 2879.3 2064.07 2844.93 2060.25 2841.68 2072.15 2823.81 2080.68 2808.47 2101.11 2773.19 2102.89 2766.7 2126.87 2781.22 2145.7 2792.32 2154.59 2797.55 2154.59 2797.55"/></g><g id="HATCH-124"><polygon class="cls-1" points="1957.82 2600.11 2005.06 2626.46 1994.02 2659.93 1946.61 2642.22 1950.68 2632.64 1941.08 2629.09 1953.57 2597.23 1957.82 2600.11 1957.82 2600.11"/></g><g id="HATCH-125"><polygon class="cls-1" points="2174.65 3133.6 2172.93 3142.89 2092.07 3130.7 2058.68 3125.65 2065.21 3088.93 2098.97 3093.99 2179.74 3106.09 2174.65 3133.6 2174.65 3133.6"/></g><g id="HATCH-126"><polygon class="cls-1" points="1852.16 2288.26 1906.5 2294.51 1973.62 2311.88 1952.28 2375.71 1942.03 2372.98 1893.52 2360.28 1751.38 2336.39 1760.4 2299.1 1847.46 2312.76 1852.16 2288.26 1852.16 2288.26"/></g><g id="HATCH-127"><polygon class="cls-1" points="2164.26 2154.94 2190.41 2157.79 2189.01 2167.02 2242.42 2174.78 2241.03 2186.69 2337.51 2203.25 2334.35 2226.97 2239.44 2213.08 2158.49 2201.18 2164.26 2154.94 2164.26 2154.94"/></g><g id="HATCH-128"><polygon class="cls-1" points="1997.08 2667.71 2068.62 2691.27 2054.17 2731.84 2044.78 2728.42 2014.57 2717.56 1929.86 2687.68 1928.21 2687.16 1919.27 2684 1923.6 2674.19 1931.7 2655.44 1941.83 2659.12 1945.7 2649.39 1997.08 2667.71 1997.08 2667.71"/></g><g id="HATCH-129"><polygon class="cls-1" points="1853.48 2531.87 1889.13 2544.61 1875.34 2578.48 1785.76 2543.42 1795.53 2514.8 1853.48 2531.87 1853.48 2531.87"/></g><g id="HATCH-130"><polygon class="cls-1" points="2102.32 3213.6 2095.84 3270.8 2055.34 3265.42 2062.14 3204.46 2102.32 3213.6 2102.32 3213.6"/></g><g id="HATCH-131"><path class="cls-1" d="m2014.97,2723.34l30.69,11.29-6.74,14.66,56.52,18.49-21.52,35.61-8.98,15.48-47.72-23.41-34.81-16.21-87.4-35.79,7.3-16.94,8.52,2.91,16.38-37.71,1.68.55,86.09,31.06h0m-23.21,33.61l4.49,1.73,7.86-17.67-26.01-10.38-8.05,17.76,21.71,8.56h0Z"/></g><g id="HATCH-132"><polygon class="cls-1" points="2678.49 1017.77 2685.1 944.59 2719.41 949.49 2747.38 953.52 2743.09 988.89 2738.8 1026.35 2735.88 1026 2678.49 1017.77 2678.49 1017.77"/></g><g id="HATCH-133"><polygon class="cls-1" points="2845.22 1051.48 2873.33 1051.85 2871.21 1108.06 2868.34 1187.44 2840 1188.35 2845.22 1051.48 2845.22 1051.48"/></g><g id="HATCH-134"><polygon class="cls-1" points="2542.81 874.03 2543.69 869.24 2621.24 880.74 2620.71 885.36 2615.17 928.01 2536.04 916.34 2542.81 874.03 2542.81 874.03"/></g><g id="HATCH-135"><polygon class="cls-1" points="1709.03 2568.95 1730.13 2526 1742.9 2531.31 1729.02 2559.43 1746.61 2566.57 1742.26 2577.1 1857.11 2625.55 1842.67 2663.46 1694.59 2598.63 1709.03 2568.95 1709.03 2568.95"/></g><g id="HATCH-136"><polygon class="cls-1" points="1628.18 2153.17 1639.36 2083.62 1652.82 2087.18 1792.87 2129.13 1899.94 2149.97 1886.49 2217.15 1859.48 2212.58 1776 2197.5 1774.2 2197.32 1628.18 2153.17 1628.18 2153.17"/></g><g id="HATCH-137"><polygon class="cls-1" points="1674.94 2371.04 1681.95 2326.77 1748.6 2340.65 1891.76 2365.09 1940.61 2378.07 1928.12 2409.99 1935.88 2418.02 1927.93 2438.49 1847.64 2407.74 1674.94 2371.04 1674.94 2371.04"/></g><g id="HATCH-138"><polygon class="cls-1" points="984.13 2096.23 989.51 2063.94 960.53 2058.04 961.05 2047.15 966.43 2018.46 977.01 1948.53 1036.19 1950.38 1017.45 2058.41 1009.03 2102.6 984.13 2096.23 984.13 2096.23"/></g><g id="HATCH-139"><polygon class="cls-1" points="1654.51 2652.75 1666.26 2627.37 1676.89 2602.07 1679.97 2598.11 1692.19 2603.42 1692.56 2603.42 1841.78 2667.16 1830.78 2694.79 1818.65 2697.58 1814.64 2707.57 1679.97 2663.11 1654.51 2652.75 1654.51 2652.75"/></g><g id="HATCH-140"><polygon class="cls-1" points="1858.21 2622.79 1744.27 2575.96 1748.58 2565.78 1731.14 2558.88 1744.91 2531.7 1748.31 2532.94 1782.19 2546.31 1874 2582.87 1871.99 2588.36 1858.21 2622.79 1858.21 2622.79"/></g><g id="HATCH-141"><polygon class="cls-1" points="1301.23 2124.03 1321.22 2030.34 1344.28 2035.93 1345.86 2025.85 1354.82 2028.05 1355.48 2028.14 1350.67 2052.25 1329.1 2165.37 1304.22 2159.51 1310.6 2126.32 1301.23 2124.03 1301.23 2124.03"/></g><g id="HATCH-142"><polygon class="cls-1" points="480.51 2744.46 604.01 2740.56 605.1 2766.19 476.86 2770.16 475.4 2744.75 480.51 2744.46 480.51 2744.46"/></g><g id="HATCH-143"><polygon class="cls-1" points="1143.66 2440.69 1132.5 2556.97 1101.7 2555.39 1112.78 2384.04 1148.19 2392.68 1143.66 2440.69 1143.66 2440.69"/></g><g id="HATCH-144"><polygon class="cls-1" points="1056.43 2273.75 1052.99 2327.67 1021.85 2326.01 986.54 2325.01 939.01 2323.6 939.55 2314.04 969.16 2314.96 970.97 2273.41 979.48 2273.41 1015.69 2272.83 1056.43 2273.75 1056.43 2273.75"/></g><g id="HATCH-145"><polygon class="cls-1" points="1113.02 1952.58 1096.08 2048.01 1075.7 2044.48 1071.55 2066.64 1024.97 2056.42 1044.03 1950.5 1113.02 1952.58 1113.02 1952.58"/></g><g id="HATCH-146"><polygon class="cls-1" points="976.07 2263.52 968.6 2263.52 954.28 2262.91 958.66 2234.75 946.97 2232.3 955.4 2182.45 989.43 2189.44 986.89 2203.26 976.07 2263.52 976.07 2263.52"/></g><g id="HATCH-147"><polygon class="cls-1" points="940.92 2264.07 944.81 2238.45 955.01 2240.87 951.19 2268.75 963.69 2269.35 962.3 2312.64 939.6 2311.69 940.92 2264.07 940.92 2264.07"/></g><g id="HATCH-148"><polygon class="cls-1" points="982.1 2105.47 1005.44 2111.48 992.19 2180.31 957.38 2173.35 958.93 2163.69 961.45 2148.98 969.58 2102.77 982.1 2105.47 982.1 2105.47"/></g><g id="HATCH-149"><polygon class="cls-1" points="1393.9 3540.31 1488.65 3560.96 1490.16 3555.24 1560.51 3570.44 1551.09 3611.11 1342.1 3565.43 1328.54 3562.48 1334.19 3538.7 1337.4 3526.01 1341.26 3510.1 1380.15 3520.29 1375.63 3535.66 1393.9 3540.31 1393.9 3540.31"/></g><g id="HATCH-150"><polygon class="cls-1" points="1406.94 3489.27 1500.25 3513.19 1501.19 3510.32 1506.09 3489.36 1575.66 3504.05 1573.96 3512.49 1578.3 3513.45 1570.19 3548.5 1565.66 3547.54 1565.1 3549.8 1561.23 3566.41 1490.82 3551.63 1489.32 3557.19 1394.49 3537.1 1376.21 3532.58 1380.73 3517.62 1341.8 3507.71 1342.65 3504.05 1344.16 3499.01 1344.44 3497.62 1401 3512.06 1406.94 3489.27 1406.94 3489.27"/></g><g id="HATCH-151"><polygon class="cls-1" points="1648.93 3245.14 1639.81 3280.43 1557.94 3262.78 1562.63 3243.82 1567.06 3228.24 1648.93 3245.14 1648.93 3245.14"/></g><g id="HATCH-152"><polygon class="cls-1" points="518.43 2522.38 564.41 2520.89 565.22 2536.55 519.16 2537.91 518.43 2522.38 518.43 2522.38"/></g><g id="HATCH-153"><polygon class="cls-1" points="519.32 2547.11 565.43 2545.75 566.4 2561.47 520.05 2562.77 519.32 2547.11 519.32 2547.11"/></g><g id="HATCH-154"><polygon class="cls-1" points="1210.28 2743.19 1205.41 2750.21 1127.14 2690.66 1143.83 2668.88 1164.65 2641.54 1188.28 2659.71 1201.8 2641.99 1238.77 2670.05 1225.24 2687.87 1236.06 2695.51 1210.28 2743.19 1210.28 2743.19"/></g><g id="HATCH-155"><polygon class="cls-1" points="1506.48 3040.9 1460.89 3125.97 1454.09 3140.73 1401.43 3115.41 1387.29 3105.57 1404.78 3078.15 1405.96 3075.88 1428.08 3089.81 1435.15 3077.33 1441.04 3067.13 1472.22 3013.58 1506.48 3040.9 1506.48 3040.9"/></g><g id="HATCH-156"><polygon class="cls-1" points="1117.61 1879.69 1117.24 1880.47 1107.74 1880.04 1080.06 1879 1037.35 1877.35 1039.38 1864.36 1041.96 1852.92 1019.82 1848.15 1022.4 1837.58 973.69 1827.53 978.86 1805.79 1122.77 1835.59 1127.76 1836.46 1117.61 1879.69 1117.61 1879.69"/></g><g id="HATCH-157"><polygon class="cls-1" points="1637.4 4098.4 1573.95 4087.24 1582.67 4040.61 1652.57 4055.7 1640.63 4098.98 1637.4 4098.4 1637.4 4098.4"/></g><g id="HATCH-158"><polygon class="cls-1" points="1403.88 2738.37 1365.36 2823.11 1327.36 2802.27 1370.48 2719.99 1382.59 2697.14 1416.78 2713.52 1403.88 2738.37 1403.88 2738.37"/></g><g id="HATCH-159"><polygon class="cls-1" points="1546.61 3179.12 1575.04 3184.25 1575.86 3184.41 1659.05 3202.49 1649.7 3238.38 1565.68 3221.15 1536.62 3214.17 1546.61 3179.12 1546.61 3179.12"/></g><g id="HATCH-160"><polygon class="cls-1" points="1091.7 2565.11 1087.93 2625.35 1065.45 2605.91 1069.29 2563.92 1091.7 2565.11 1091.7 2565.11"/></g><g id="HATCH-161"><polygon class="cls-1" points="1401.68 3054.34 1400.81 3055.84 1394.2 3052.12 1353.5 3027.77 1354.28 3026.26 1389.85 2964.26 1430.64 2988.44 1405.33 3032.9 1411.59 3036.8 1401.68 3054.34 1401.68 3054.34"/></g><g id="HATCH-162"><polygon class="cls-1" points="679.08 2348.36 671.77 2353.71 666.39 2346.45 673.75 2341.21 679.08 2348.36 679.08 2348.36"/></g><g id="HATCH-163"><polygon class="cls-1" points="1435.14 1877.11 1442.96 1842.5 1458.6 1773.37 1505.01 1784.69 1489.54 1853.82 1459.03 1846.36 1451.55 1881.06 1435.14 1877.11 1435.14 1877.11"/></g><g id="HATCH-164"><polygon class="cls-1" points="818.42 2319.58 776.62 2263.99 793.32 2264.24 931.47 2267.01 929.71 2313.2 929.16 2322.86 818.42 2319.58 818.42 2319.58"/></g><g id="HATCH-165"><polygon class="cls-1" points="999.09 2508.63 1050.39 2479.08 1053.86 2389.48 1054.77 2374.61 1090.55 2380.26 1105.16 2383.65 1092.65 2557.29 1063.9 2555.97 1058.97 2602.75 1036.15 2585.53 1031.95 2591.83 973.98 2523.13 999.09 2508.63 999.09 2508.63"/></g><g id="HATCH-166"><polygon class="cls-1" points="563.35 2487.03 517.25 2488.4 516.27 2472.65 562.62 2471.28 563.35 2487.03 563.35 2487.03"/></g><g id="HATCH-167"><polygon class="cls-1" points="741.25 2556.87 812.45 2504.19 826.06 2522.79 817.22 2529.2 827.47 2543.26 814.22 2552.96 830.47 2575.56 797.08 2600.29 770.58 2563.72 754.85 2575.56 741.25 2556.87 741.25 2556.87"/></g><g id="HATCH-168"><polygon class="cls-1" points="1267.26 3382.2 1259.59 3399.4 1231.58 3387.89 1239.25 3370.69 1267.26 3382.2 1267.26 3382.2"/></g><g id="HATCH-169"><polygon class="cls-1" points="523.91 2662.29 523.5 2649.91 522.36 2622.16 568.59 2620.41 570.13 2660.54 523.91 2662.29 523.91 2662.29"/></g><g id="HATCH-170"><polygon class="cls-1" points="1278.66 3356.26 1269.67 3376.21 1241.4 3364.41 1250.31 3344.46 1278.66 3356.26 1278.66 3356.26"/></g><g id="HATCH-171"><polygon class="cls-1" points="1304.54 3294.28 1270.73 3277.57 1279.09 3261.58 1216.35 3230.68 1233.99 3196 1241.8 3199.69 1247.77 3187.47 1360.39 3242.72 1340.83 3280.89 1317.58 3269.58 1304.54 3294.28 1304.54 3294.28"/></g><g id="HATCH-172"><polygon class="cls-1" points="1638.81 3285.22 1626.68 3332.89 1513.29 3305.22 1515.49 3296.29 1494.08 3290.75 1509.98 3233.45 1519.63 3235.86 1558.68 3245.59 1553.81 3266.12 1638.81 3285.22 1638.81 3285.22"/></g><g id="HATCH-173"><polygon class="cls-1" points="283.29 2446.92 485.64 2458.94 480.39 2536.93 411.04 2532.68 278.13 2524.81 283.29 2446.92 283.29 2446.92"/></g><g id="HATCH-174"><polygon class="cls-1" points="1652.57 1816.79 1643.34 1854.97 1593.5 1843.77 1586.3 1873.4 1497.32 1853.56 1513.94 1785.74 1652.57 1816.79 1652.57 1816.79"/></g><g id="HATCH-175"><polygon class="cls-1" points="844.4 2045.48 847.31 1944.7 969.19 1948.31 958.1 2018.46 930.45 2017.99 929.99 2045.57 952.46 2047.24 951.91 2058.16 945.63 2090.55 918.35 2085.18 914.35 2107.02 891.34 2102.58 901.89 2048.16 844.4 2045.48 844.4 2045.48"/></g><g id="HATCH-176"><polygon class="cls-1" points="573.65 4201.27 603.06 4036.58 636.54 4043.73 606.87 4208.33 573.65 4201.27 573.65 4201.27"/></g><g id="HATCH-177"><polygon class="cls-1" points="1317.29 1740.63 1311.57 1766.36 1339.17 1773 1330.59 1814.35 1279.42 1802.05 1294.74 1734.95 1317.29 1740.63 1317.29 1740.63"/></g><g id="HATCH-178"><polygon class="cls-1" points="1263.72 3123.79 1257.68 3134.51 1232.57 3178.84 1228.8 3176.57 1122.53 3115.81 1109.31 3108.22 1076.84 3089.71 1096.66 3054.68 1102.52 3044.62 1130.64 3060.56 1225.78 2892.45 1321.29 2947.13 1231.63 3105.37 1263.72 3123.79 1263.72 3123.79"/></g><g id="HATCH-179"><polygon class="cls-1" points="1224.59 1789.5 1183.93 1779.24 1198.93 1712.75 1239.75 1722.49 1224.59 1789.5 1224.59 1789.5"/></g><g id="HATCH-180"><polygon class="cls-1" points="1454.78 2873.66 1502.02 2784.97 1536.42 2803.01 1541.18 2791.83 1668.34 2850.17 1751.59 2884.66 1717.38 2982.75 1703.12 2975.51 1692.95 3004.17 1616.64 2966.4 1454.78 2873.66 1454.78 2873.66"/></g><g id="HATCH-181"><polygon class="cls-1" points="1231.87 1790.77 1247.02 1723.75 1287.3 1733.66 1272.15 1800.5 1231.87 1790.77 1231.87 1790.77"/></g><g id="HATCH-182"><polygon class="cls-1" points="1287.89 2784.03 1282.3 2793.24 1263.99 2783.58 1269.85 2774.37 1217.72 2747.08 1243.52 2699.67 1255.78 2708.35 1271.29 2719.44 1284.55 2691.44 1329.64 2715.33 1287.89 2784.03 1287.89 2784.03"/></g><g id="HATCH-183"><polygon class="cls-1" points="1407.8 3700.15 1528.29 3720.24 1516.46 3771.34 1428.75 3756.58 1430.52 3746.88 1346.72 3732.82 1354.45 3691.06 1407.8 3700.15 1407.8 3700.15"/></g><g id="HATCH-184"><polygon class="cls-1" points="2039.36 1994.83 1906.91 1964.25 1914.05 1929.78 1832.33 1911.81 1838.9 1885.41 1841.54 1874.16 1870.56 1880.06 2050.45 1919.34 2050.26 1921.25 2039.36 1994.83 2039.36 1994.83"/></g><g id="HATCH-185"><polygon class="cls-1" points="1396.91 1573.4 1605.61 1615.05 1590.68 1681.73 1381.98 1640.08 1374.23 1674.95 1350.31 1670.16 1353.85 1654.71 1289.26 1641.88 1284.19 1663.75 1235.87 1654.17 1240.85 1632.12 1231.09 1630.14 1243.81 1573.04 1312.61 1586.86 1317.2 1567.25 1373.85 1578.64 1371.17 1591.38 1392.13 1595.44 1396.91 1573.4 1396.91 1573.4"/></g><g id="HATCH-186"><polygon class="cls-1" points="1974.41 1352.7 1933.77 1356.45 1928.61 1224.78 1966.35 1229.44 1974.41 1352.7 1974.41 1352.7"/></g><g id="HATCH-187"><polygon class="cls-1" points="1200.45 1980.49 1187.23 2042.47 1159.63 2036.5 1154.07 2062.42 1112.8 2053.51 1131.5 1965.53 1200.45 1980.49 1200.45 1980.49"/></g><g id="HATCH-188"><polygon class="cls-1" points="1398.56 3123.41 1449.7 3148.39 1443.1 3163.12 1440.28 3169.58 1425.32 3161.14 1393.81 3230.13 1374.63 3220.78 1363.71 3196.71 1372.16 3178.75 1398.56 3123.41 1398.56 3123.41"/></g><g id="HATCH-189"><polygon class="cls-1" points="1533.08 3131.95 1567.27 3071.74 1640.43 3110.76 1678.11 3125.85 1660.28 3196.43 1576.09 3176.88 1575.27 3176.69 1546.5 3171.15 1554.04 3143.22 1533.08 3131.95 1533.08 3131.95"/></g><g id="HATCH-190"><polygon class="cls-1" points="1658.53 3886.48 1611.68 3878.83 1623.94 3811.7 1667.3 3818.83 1660.74 3861.44 1676.93 3864.22 1672.84 3888.74 1658.53 3886.48 1658.53 3886.48"/></g><g id="HATCH-191"><polygon class="cls-1" points="260.57 4083.85 211.13 4070.21 256.92 3888.04 300.58 3900.09 306.45 3901.78 260.57 4083.85 260.57 4083.85"/></g><g id="HATCH-192"><polygon class="cls-1" points="251.73 3886.94 204.75 4069.51 123.46 4047.31 121.73 4046.93 168.8 3864.36 251.73 3886.94 251.73 3886.94"/></g><g id="HATCH-193"><polygon class="cls-1" points="1358.46 2054 1511.16 2085 1518.39 2050.41 1629.77 2082.35 1618.54 2154.28 1590.74 2303.7 1317.24 2246.52 1333.71 2170.63 1358.46 2054 1358.46 2054"/></g><g id="HATCH-194"><polygon class="cls-1" points="1619.95 1948.69 1613.63 1978.91 1579.06 1971.78 1585.77 1941.56 1619.95 1948.69 1619.95 1948.69"/></g><g id="HATCH-195"><polygon class="cls-1" points="1412.02 3866.3 1338.37 3855.49 1344.77 3822.9 1354.2 3824.6 1434.08 3837.58 1427.67 3868.8 1412.02 3866.3 1412.02 3866.3"/></g><g id="HATCH-196"><polygon class="cls-1" points="1897.82 2519.34 1858.71 2507.12 1757.6 2483.23 1661.98 2454.66 1674.47 2375 1847.16 2412.4 1927.45 2443.73 1897.82 2519.34 1897.82 2519.34"/></g><g id="HATCH-197"><polygon class="cls-1" points="1675.37 3819.76 1720.67 3826.48 1822.72 3841.83 1815.16 3884.08 1758.13 3875.63 1755.55 3891.5 1719.01 3886.15 1721.78 3870.11 1685.8 3864.77 1668.26 3862.01 1675.37 3819.76 1675.37 3819.76"/></g><g id="HATCH-198"><polygon class="cls-1" points="1963.31 3869.09 1950.02 3949.65 1911.62 3943.59 1918.4 3902.51 1848.64 3891.55 1855.14 3851.98 1866.44 3853.76 1907.92 3860.36 1963.31 3869.09 1963.31 3869.09"/></g><g id="HATCH-199"><polygon class="cls-1" points="1905.96 3851.22 1866.65 3844.44 1877.1 3774.68 1857.58 3771.39 1863.14 3732.85 1882.67 3736.14 1886.09 3714.54 1925.48 3721.41 1905.96 3851.22 1905.96 3851.22"/></g><g id="HATCH-200"><polygon class="cls-1" points="1906.49 1740.55 2075.99 1777.51 2051.64 1913.09 1872.31 1872.88 1876.15 1857.93 1905.09 1746.5 1906.49 1740.55 1906.49 1740.55"/></g><g id="HATCH-201"><polygon class="cls-1" points="2053.59 3204.05 2045.67 3271.93 2043.6 3283.63 2028.24 3413.5 2032.48 3414.07 2020.88 3491.55 1920.69 3477.67 1865.08 3469.97 1817.95 3463.41 1835.01 3388.97 1845.85 3340.58 1817 3333.92 1818.79 3326.03 1835.01 3254.92 1956.13 3267.09 1968.19 3191.69 2053.59 3204.05 2053.59 3204.05"/></g><g id="HATCH-202"><polygon class="cls-1" points="1980.96 2783.74 2015.74 2800.14 2063.42 2823.81 2050.89 2842.05 2047.9 2839.93 2008.82 2897.87 1971.98 2868.85 1994.98 2831.18 1968.62 2818.47 1953.85 2858.08 1936.64 2846.93 1940.57 2838.46 1866.71 2811.37 1866.71 2810.91 1893.64 2747.54 1980.96 2783.74 1980.96 2783.74"/></g><g id="HATCH-203"><polygon class="cls-1" points="1982.73 3716.53 1940.2 3708.85 1947.68 3660.33 1953.16 3628.48 1994.94 3635.89 1982.73 3716.53 1982.73 3716.53"/></g><g id="HATCH-204"><polygon class="cls-1" points="2014.3 1169.89 2005.1 1202.89 1957.29 1197.01 1962.14 1163.38 2009.78 1169.26 2014.3 1169.89 2014.3 1169.89"/></g><g id="HATCH-205"><polygon class="cls-1" points="1808.78 2988.39 1801.87 2985.54 1836.3 2894.71 1842.73 2896.46 1893.89 2910.27 1890.96 2919.21 1927 2934.41 1935.22 2916.63 1984.97 2931.74 2059.68 2985.26 2041.15 3013.91 2036.61 3045.23 1947.99 3031.14 1905.43 3024.6 1808.78 2988.39 1808.78 2988.39"/></g><g id="HATCH-206"><polygon class="cls-1" points="1908.78 3655.52 1906.34 3666.03 1874.18 3661.77 1876.54 3651.37 1908.78 3655.52 1908.78 3655.52"/></g><g id="HATCH-207"><polygon class="cls-1" points="1865.79 2815.62 1940.2 2842.86 1936.25 2851.38 1953.58 2862.59 1971.85 2873.43 2008.96 2902.62 2016.5 2908.92 2071.13 2951.54 2076.78 2956.17 2060.39 2981.28 1985.98 2927.45 1936.43 2912.25 1928.24 2930.14 1892.35 2914.85 1895.27 2905.86 1844.32 2891.96 1869.37 2824.89 1863.15 2822.57 1865.79 2815.62 1865.79 2815.62"/></g><g id="HATCH-208"><polygon class="cls-1" points="1943.66 3036.42 1930.63 3105.16 1925.46 3104.62 1874.64 3097.68 1792.41 3063.72 1785.76 3046.96 1807.66 2994.62 1902.08 3030.03 1943.66 3036.42 1943.66 3036.42"/></g><g id="HATCH-209"><polygon class="cls-1" points="1822.72 3976.84 1814.4 4015.08 1753.54 4005.48 1777.74 3896.19 1813.8 3904.89 1798.86 3972.85 1822.72 3976.84 1822.72 3976.84"/></g><g id="HATCH-210"><polygon class="cls-1" points="1674.94 2041.72 1702.85 1947.26 1789.62 1972.62 1812.75 1979.33 1868.18 1990.99 1863.59 2011.41 2032.08 2048.81 2031.6 2053 2015.07 2134.13 1872.96 2101.12 1788.67 2078.28 1674.94 2041.72 1674.94 2041.72"/></g><g id="HATCH-211"><polygon class="cls-1" points="1294.16 2784.48 1334.84 2714.86 1352.14 2681.32 1378.76 2695.92 1366.73 2718.67 1323.85 2800.61 1294.16 2784.48 1294.16 2784.48"/></g><g id="HATCH-212"><polygon class="cls-1" points="1539.17 2785.91 1579.52 2701.27 1623.73 2719.89 1607.42 2754.72 1645.51 2767.94 1682.08 2779.02 1670.3 2806.96 1776.35 2847.56 1765.42 2883.13 1758.06 2881.74 1752.6 2879.41 1670.02 2845.23 1543.89 2787.4 1539.17 2785.91 1539.17 2785.91"/></g><g id="HATCH-213"><polygon class="cls-1" points="1687.12 2783.3 1696.7 2786.69 1776.56 2803.28 1790.11 2805.99 1777.46 2845.61 1675.83 2808.7 1687.12 2783.3 1687.12 2783.3"/></g><g id="HATCH-214"><polygon class="cls-1" points="1369.61 2824.66 1408.27 2739.73 1421.22 2714.82 1462.27 2737.17 1406.58 2844.82 1369.61 2824.66 1369.61 2824.66"/></g><g id="HATCH-215"><polygon class="cls-1" points="1469.34 3010.91 1440.28 3061.84 1430.23 3055.77 1424.82 3065.47 1407.92 3055.51 1417.55 3038.37 1411.47 3034.56 1436.06 2991.08 1469.34 3010.91 1469.34 3010.91"/></g><g id="HATCH-216"><polygon class="cls-1" points="322.83 4099.75 376.76 3887.15 425.02 3900.61 430.23 3907.86 377.93 4114.9 322.83 4099.75 322.83 4099.75"/></g><g id="HATCH-217"><polygon class="cls-1" points="1915.07 3485.29 1912.55 3502.56 1857.93 3495.21 1854.33 3509.99 1883.89 3516.57 1878.48 3539.39 1806.39 3525.38 1804.13 3524.86 1816.84 3472.47 1861.9 3478.37 1915.07 3485.29 1915.07 3485.29"/></g><g id="HATCH-218"><polygon class="cls-1" points="1694.59 3502.91 1706.69 3447.12 1789.39 3465.43 1807.99 3469.51 1795.26 3522.69 1789.39 3521.56 1696.22 3503.17 1694.59 3502.91 1694.59 3502.91"/></g><g id="HATCH-219"><polygon class="cls-1" points="1940.82 3653.94 1911.44 3648.71 1871.07 3642.19 1747.31 3621.16 1662.96 3607.02 1675.17 3544.48 1677.85 3533.27 1689.77 3535.66 1695.4 3510.59 1793.88 3530.06 1788.15 3556.87 1874.03 3573.86 1876.42 3562.84 1799.22 3547.6 1802.46 3531.8 1878.8 3546.86 1972.5 3565.41 1970.6 3572.85 1995.41 3577.72 1992.73 3591.31 2001.13 3593.06 1995.12 3628.51 1947.12 3620.79 1940.82 3653.94 1940.82 3653.94"/></g><g id="HATCH-220"><polygon class="cls-1" points="690.66 4392.73 702.22 4331.65 686.97 4323.7 712.81 4277.36 715.92 4260.2 668.22 4251.08 673.95 4222.48 612.16 4210.75 646.16 4038.86 685.22 3841.28 680.17 3840.31 682.11 3828.87 708.92 3693.72 719.22 3642.53 761.1 3650.87 1185.37 3734.05 1145.73 3934.83 1206.74 3945.4 1208.3 3935.22 1221.32 3937.55 1227.73 3901.58 1280.87 3910.69 1290.01 3861.34 1409.31 3882.58 1410.77 3872.69 1427.87 3875.69 1434.86 3838.17 1436.03 3830.71 1437 3825.38 1505.2 3837.49 1490.05 3921.36 1460.61 4092.38 1430.59 4257.19 1407.47 4392.73 690.66 4392.73 690.66 4392.73"/></g><g id="HATCH-221"><polygon class="cls-1" points="1564.59 4140.81 1610.14 4147.27 1608.66 4155.39 1634.69 4158.93 1631.04 4181.31 1625.58 4180.6 1559.22 4171.23 1562.42 4152.16 1564.59 4140.81 1564.59 4140.81"/></g><g id="HATCH-222"><polygon class="cls-1" points="1342.18 3570.91 1550.69 3617.83 1547.78 3630.32 1537.82 3628.11 1535.18 3640.6 1545.15 3643.08 1529.27 3713.87 1407.68 3692.75 1420.55 3637.48 1331.1 3617.37 1342.18 3570.91 1342.18 3570.91"/></g><g id="HATCH-223"><polygon class="cls-1" points="1268.9 2091.03 1282.2 2022.31 1314.91 2030.07 1294.75 2123.34 1285.38 2121.15 1279.11 2153 1257.61 2147.79 1268.9 2091.03 1268.9 2091.03"/></g><g id="HATCH-224"><polygon class="cls-1" points="1472.71 3215.19 1435.14 3198.42 1446.92 3172.7 1449.55 3166.84 1487.13 3183.69 1472.71 3215.19 1472.71 3215.19"/></g><g id="HATCH-225"><polygon class="cls-1" points="1724.07 3301.37 1734.08 3259.74 1752.51 3262.33 1753.05 3255.09 1753.76 3248.97 1825.77 3256.04 1810.38 3320.51 1724.07 3301.37 1724.07 3301.37"/></g><g id="HATCH-226"><polygon class="cls-1" points="1387.29 1827.15 1402.44 1760.2 1451.96 1771.88 1436.47 1838.91 1387.29 1827.15 1387.29 1827.15"/></g><g id="HATCH-227"><polygon class="cls-1" points="1709.15 3745.15 1705.6 3762.8 1653.63 3754.8 1634.67 3755.32 1639.86 3730.95 1657.19 3737.08 1709.15 3745.15 1709.15 3745.15"/></g><g id="HATCH-228"><polygon class="cls-1" points="1508.91 3811.95 1505.6 3830.09 1439.19 3818.98 1441.46 3806.52 1418.75 3802.61 1256.14 3775.22 1264.18 3734.48 1426.7 3761.88 1515.81 3776.91 1511.56 3798.7 1503.51 3800.12 1502.1 3807.86 1508.91 3811.95 1508.91 3811.95"/></g><g id="HATCH-229"><polygon class="cls-1" points="1551.59 3066.14 1559.63 3070.95 1530.87 3126.78 1522.67 3121.8 1551.59 3066.14 1551.59 3066.14"/></g><g id="HATCH-230"><polygon class="cls-1" points="1339.15 3429.17 1346.71 3404.26 1410.19 3421.88 1416.62 3401.15 1458.94 3412.8 1455.64 3424.01 1589.69 3460.75 1581 3497.05 1576.09 3496.07 1506.37 3481.04 1393.38 3446.07 1339.15 3429.17 1339.15 3429.17"/></g><g id="HATCH-231"><polygon class="cls-1" points="1339.15 1815.65 1347.65 1774.44 1353.31 1748.61 1356.47 1749.48 1394.78 1758.87 1379.96 1825.65 1339.15 1815.65 1339.15 1815.65"/></g><g id="HATCH-232"><polygon class="cls-1" points="1511.13 3043.05 1549.41 3064.08 1516.65 3123.13 1507.01 3145.05 1467.06 3126.62 1511.13 3043.05 1511.13 3043.05"/></g><g id="HATCH-233"><polygon class="cls-1" points="1158.32 2065.13 1163.88 2038.85 1191.51 2044.9 1204.75 1982.03 1242.7 1990.34 1229.46 2053.21 1215.34 2050.32 1204.13 2096.11 1154.26 2085.18 1158.32 2065.13 1158.32 2065.13"/></g><g id="HATCH-234"><polygon class="cls-1" points="1202.6 2120.45 1208.96 2098.21 1220.04 2051.82 1234 2054.75 1247.08 1991.07 1281.8 1998.76 1277.09 2020.17 1263.22 2089.06 1235.13 2084.85 1222.83 2126.67 1202.6 2120.45 1202.6 2120.45"/></g><g id="HATCH-235"><polygon class="cls-1" points="1724.95 3710.71 1730.86 3680.45 1850.03 3699.13 1844.03 3729.4 1724.95 3710.71 1724.95 3710.71"/></g><g id="HATCH-236"><polygon class="cls-1" points="1721.34 3678.77 1715.65 3710.83 1710.5 3739.61 1658.04 3730.28 1640.56 3723.19 1651.4 3666.5 1721.34 3678.77 1721.34 3678.77"/></g><g id="HATCH-237"><polygon class="cls-1" points="1671.97 2592.57 1617.47 2567.09 1621.89 2557.61 1652.28 2492.7 1706.6 2516.75 1694.06 2545.45 1687.87 2559.22 1699.71 2564.58 1700.59 2564.94 1686.81 2593.91 1686.46 2593.91 1674.89 2588.63 1671.97 2592.57 1671.97 2592.57"/></g><g id="HATCH-238"><polygon class="cls-1" points="1687.12 2774.99 1711.82 2709.49 1672.19 2696.64 1680.76 2669.04 1813.84 2714.04 1823.61 2717.32 1813.56 2742.74 1800.84 2738.37 1778.36 2796.48 1696.89 2778.63 1687.12 2774.99 1687.12 2774.99"/></g><g id="HATCH-239"><polygon class="cls-1" points="2789.29 1278.62 2835.78 1273.51 2841.09 1339.98 2860.75 1341.57 2860.4 1360.97 2831.88 1355.94 2769.37 1350.3 2770.43 1292.02 2790.8 1289.82 2789.29 1278.62 2789.29 1278.62"/></g><g id="HATCH-240"><polygon class="cls-1" points="3086.09 1294.83 3136.15 1299.17 3140.7 1249.52 3163.45 1248.16 3206.96 1251.06 3196.77 1366.86 3152.89 1362.87 3083.54 1350.55 3080.99 1350.46 3086.09 1294.83 3086.09 1294.83"/></g><g id="HATCH-241"><polygon class="cls-1" points="3134.15 1520.51 3097.94 1517.4 3049.55 1507.36 3066.11 1446.81 3128.96 1457.88 3148.34 1461.34 3174.44 1462.55 3173.26 1481.41 3144.15 1479.94 3134.15 1520.51 3134.15 1520.51"/></g><g id="HATCH-242"><polygon class="cls-1" points="2187.68 1647.1 2305.12 1660.39 2336.92 1664.09 2332.63 1697.72 2359.03 1700.72 2355.58 1727.04 2355.02 1732.32 2305.4 1726.6 2305.95 1721.93 2287.3 1719.73 2258.76 1716.47 2171.27 1706.35 2179.19 1646.04 2187.68 1647.1 2187.68 1647.1"/></g><g id="HATCH-243"><polygon class="cls-1" points="2188.56 1639.27 2195.11 1589.46 2203.47 1590.39 2313.35 1602.84 2303.07 1652.06 2188.56 1639.27 2188.56 1639.27"/></g><g id="HATCH-244"><polygon class="cls-1" points="2001.72 1628.56 2101.14 1649.61 2089.6 1700.59 1989.91 1679.54 2001.72 1628.56 2001.72 1628.56"/></g><g id="HATCH-245"><polygon class="cls-1" points="2169 1360.97 2101.43 1343.32 1994.28 1353.11 1991.48 1329.4 2039.08 1324.08 2037.5 1308.29 2110.95 1308.63 2113 1299.94 2181.6 1314.96 2169 1360.97 2169 1360.97"/></g><g id="HATCH-246"><polygon class="cls-1" points="2194.32 1828.8 2131.38 1819.29 2146.03 1742.62 2206.46 1749.92 2194.32 1828.8 2194.32 1828.8"/></g><g id="HATCH-247"><polygon class="cls-1" points="2426.6 1486.02 2432.48 1431.92 2256.93 1410.55 2271.17 1292.52 2284.55 1294.22 2291.09 1240.5 2363.97 1249.39 2467.78 1262.06 2493.31 1286.84 2481.64 1382.27 2487.33 1383.03 2484.68 1402.7 2514.85 1406.39 2517.7 1386.53 2523.58 1387.47 2540.19 1410.64 2534.21 1459.73 2529.46 1498.5 2426.6 1486.02 2426.6 1486.02"/></g><g id="HATCH-248"><polygon class="cls-1" points="2114.34 1292.29 2027.64 1281.36 2030.23 1238.24 2121.95 1249.69 2165.39 1259.67 2199.09 1267.16 2187.76 1308.9 2182.57 1307.61 2114.34 1292.29 2114.34 1292.29"/></g><g id="HATCH-249"><polygon class="cls-1" points="3529 1810.43 3521.84 1897.37 3490.86 1894.01 3498.49 1807.16 3529 1810.43 3529 1810.43"/></g><g id="HATCH-250"><polygon class="cls-1" points="3732.56 1684.96 3713.6 1770.24 3681.84 1762.26 3700.8 1676.79 3732.56 1684.96 3732.56 1684.96"/></g><g id="HATCH-251"><polygon class="cls-1" points="3643.92 1753.15 3662.79 1667.76 3694.54 1675.92 3675.59 1761.4 3643.92 1753.15 3643.92 1753.15"/></g><g id="HATCH-252"><polygon class="cls-1" points="3420.45 1799.6 3451.39 1802.87 3444.06 1889.8 3413.05 1886.53 3420.45 1799.6 3420.45 1799.6"/></g><g id="HATCH-253"><polygon class="cls-1" points="3226.16 1252.19 3231.53 1252.63 3293.22 1257.86 3283.51 1306.84 3274.85 1306.14 3271.56 1343.87 3231.53 1340.06 3218.53 1338.91 3226.16 1252.19 3226.16 1252.19"/></g><g id="HATCH-254"><polygon class="cls-1" points="3187.82 1600.78 3147.18 1596.61 3106.53 1592.44 3110.93 1555.19 3126.59 1556.94 3127.91 1544.85 3143.48 1546.52 3142.25 1558.44 3151.58 1559.36 3192.22 1563.52 3187.82 1600.78 3187.82 1600.78"/></g><g id="HATCH-255"><polygon class="cls-1" points="3927.06 1896.17 3902.54 1977.53 3823.32 1953.43 3825.6 1945.57 3802.09 1938.45 3812.7 1903.57 3836.12 1910.69 3837.77 1905.49 3881.32 1918.54 3892.66 1881.65 3874.73 1876.17 3884.25 1845.67 3937.49 1861.74 3927.06 1896.17 3927.06 1896.17"/></g><g id="HATCH-256"><polygon class="cls-1" points="3855.14 1787.4 3914.57 1767.37 3916.17 1825.36 3885.36 1836.46 3868.48 1842.35 3864.43 1825.45 3855.14 1787.4 3855.14 1787.4"/></g><g id="HATCH-257"><polygon class="cls-1" points="3599.22 1772.49 3624.06 1658.72 3656.52 1667.07 3637.28 1754.42 3636.44 1754.14 3630.59 1780.66 3599.22 1772.49 3599.22 1772.49"/></g><g id="HATCH-258"><polygon class="cls-1" points="3470.09 1704.22 3462.96 1673.17 3532.5 1656.26 3539.8 1691.95 3470.09 1704.22 3470.09 1704.22"/></g><g id="HATCH-259"><polygon class="cls-1" points="3520.57 1614.9 3531.55 1649.57 3461.81 1666.7 3452.74 1637.3 3520.57 1614.9 3520.57 1614.9"/></g><g id="HATCH-260"><polygon class="cls-1" points="3359.51 2013.69 3319.72 2009.83 3325.11 1955.11 3350.75 1957.72 3364.74 1959.14 3359.51 2013.69 3359.51 2013.69"/></g><g id="HATCH-261"><polygon class="cls-1" points="3719.86 1771.12 3738.81 1685.83 3770.48 1694.09 3751.61 1779.28 3719.86 1771.12 3719.86 1771.12"/></g><g id="HATCH-262"><polygon class="cls-1" points="1906.3 1969.97 2038.86 1999.77 2032.37 2044.24 1866.63 2008.79 1871.14 1989.42 1816.61 1978.37 1822.25 1954.23 1906.3 1969.97 1906.3 1969.97"/></g><g id="HATCH-263"><polygon class="cls-1" points="1792.84 1964.68 1809.63 1880.55 1829.21 1885.77 1823.81 1911.51 1816.11 1946.9 1811.48 1971.05 1792.84 1964.68 1792.84 1964.68"/></g><g id="HATCH-264"><polygon class="cls-1" points="3459.48 1803.23 3490.49 1806.77 3482.85 1893.64 3452.15 1890.19 3459.48 1803.23 3459.48 1803.23"/></g><g id="HATCH-265"><polygon class="cls-1" points="2130.04 1828.19 2192.7 1837.05 2187.27 1878.9 2120.38 1874.3 2130.04 1828.19 2130.04 1828.19"/></g><g id="HATCH-266"><polygon class="cls-1" points="3187.31 1411.33 3185.31 1432.29 3160.76 1430.23 3162.05 1414.9 3162.62 1409.28 3187.31 1411.33 3187.31 1411.33"/></g><g id="HATCH-267"><polygon class="cls-1" points="2651.02 1360.77 2648.22 1322.87 2645.78 1288.82 2760.94 1279.11 2760.94 1281.3 2760.58 1292.5 2759.49 1350.35 2759.49 1352.89 2754.43 1353.59 2651.02 1360.77 2651.02 1360.77"/></g><g id="HATCH-268"><polygon class="cls-1" points="1992.04 1360.77 2100.3 1350.43 2168.57 1369.06 2174.04 1370.49 2156.88 1436.1 2104.07 1421.75 2095.2 1419.43 2099.35 1394.02 2053.15 1399.37 2061.82 1411.5 2065.78 1448.4 2034.47 1446.71 2033.53 1400.71 1985.63 1405.61 1987.99 1427.45 1942.25 1430.84 1934.89 1364.96 1982.42 1361.31 1992.04 1360.77 1992.04 1360.77"/></g><g id="HATCH-269"><polygon class="cls-1" points="2065.5 1455.53 2095.34 1454.64 2103.6 1429.03 2156.16 1443.3 2147.9 1467.85 2137.39 1467.68 2133.54 1478.93 2142.27 1484.78 2130.26 1521.4 2064.56 1506.95 1950.82 1509.52 1942.56 1438.07 1988.07 1434.7 1990.23 1452.69 2034.34 1453.85 2065.5 1455.53 2065.5 1455.53"/></g><g id="HATCH-270"><polygon class="cls-1" points="3127.87 1449.38 3067.43 1438.06 3081.95 1359.18 3148.6 1371.2 3144.05 1409.94 3134.96 1408.08 3127.87 1449.38 3127.87 1449.38"/></g><g id="HATCH-271"><polygon class="cls-1" points="2649.41 1503.79 2709.66 1508.34 2706.77 1551.85 2646.27 1547.13 2649.41 1503.79 2649.41 1503.79"/></g><g id="HATCH-272"><polygon class="cls-1" points="3486.36 1529.73 3422.4 1562.56 3404.9 1534.49 3468.34 1498.09 3486.36 1529.73 3486.36 1529.73"/></g><g id="HATCH-273"><polygon class="cls-1" points="2770.76 1279.99 2782.21 1279.21 2783.14 1283.33 2770.55 1284.14 2770.76 1279.99 2770.76 1279.99"/></g><g id="HATCH-274"><polygon class="cls-1" points="2204.67 1582.53 2211.27 1532.67 2219.14 1533.6 2320.42 1545.88 2313.91 1594.98 2204.67 1582.53 2204.67 1582.53"/></g><g id="HATCH-275"><polygon class="cls-1" points="2753.84 1418.7 2763.49 1362.38 2768.79 1361.66 2768.79 1359.08 2835.58 1364.78 2866.05 1369.86 2908.34 1377.44 2910.7 1362.55 2995.85 1375.48 2990.55 1405.42 3014.01 1409.08 3008.9 1438.13 3005.87 1456.85 2956.3 1449.27 2753.84 1418.7 2753.84 1418.7"/></g><g id="HATCH-276"><polygon class="cls-1" points="2325.38 1538.59 2220.39 1525.35 2234.45 1414.49 2255.26 1416.95 2428.68 1437.59 2422.87 1489.82 2396.62 1486.63 2388.94 1546.35 2353.13 1542.15 2325.38 1538.59 2325.38 1538.59"/></g><g id="HATCH-277"><polygon class="cls-1" points="2280.41 1749.42 2259.09 1746.76 2262.16 1724.64 2283.48 1727.23 2280.41 1749.42 2280.41 1749.42"/></g><g id="HATCH-278"><polygon class="cls-1" points="2706.32 1560.69 2704.11 1595.27 2658.35 1589.64 2643.52 1588.31 2645.89 1556.15 2706.32 1560.69 2706.32 1560.69"/></g><g id="HATCH-279"><polygon class="cls-1" points="3915.04 1564.92 3874.88 1563.24 3876.94 1549.69 3835.28 1543.62 3849.17 1451.15 3730.19 1424.9 3731.88 1417.15 3705.42 1411.45 3706.73 1406.12 3713.96 1371.75 3740.51 1377.64 3741.83 1371.75 3746.52 1372.87 3855.55 1396.88 3860.8 1373.43 3910.16 1380.72 3894.58 1484.77 3918.04 1485.61 3915.04 1564.92 3915.04 1564.92"/></g><g id="HATCH-280"><polygon class="cls-1" points="3809.25 1680.94 3835.84 1680.94 3836.75 1660.78 3915.68 1664.17 3916.86 1708.32 3838.57 1705.02 3834.56 1749.61 3834.29 1753.62 3791.04 1759.24 3790.5 1680.94 3809.25 1680.94 3809.25 1680.94"/></g><g id="HATCH-281"><polygon class="cls-1" points="1957.85 1580.1 1985.41 1581.13 1986.52 1574.08 2010.08 1572.36 2115.09 1588.1 2107.11 1620.95 2096.54 1618.62 2092.36 1635.39 2103.03 1637.54 2101.92 1642.53 1999.6 1621.55 1977.61 1617.08 1972.97 1636.08 1945.7 1630.75 1957.85 1580.1 1957.85 1580.1"/></g><g id="HATCH-282"><polygon class="cls-1" points="2076.53 1769.65 1908.17 1734.53 1922.87 1681.41 2086.11 1718.74 2076.53 1769.65 2076.53 1769.65"/></g><g id="HATCH-283"><polygon class="cls-1" points="2881.17 1264.18 3060.61 1262.31 3061.17 1313.64 3050 1358.21 2979.45 1346.47 2978.89 1314.09 2912.25 1314.62 2912.53 1339.18 2882 1339.53 2881.17 1264.18 2881.17 1264.18"/></g><g id="HATCH-284"><polygon class="cls-1" points="1955.65 1572.51 1884 1568.34 1886.27 1520.41 1948.57 1517.85 2062.97 1515.38 2129.04 1529.28 2118.75 1581.13 2115.64 1580.44 2008.79 1564.84 1984.81 1566.54 1983.68 1573.54 1955.65 1572.51 1955.65 1572.51"/></g><g id="HATCH-285"><polygon class="cls-1" points="2636.08 1596.22 2650.71 1597.76 2640.51 1713.36 2606.22 1709.82 2610.24 1663.82 2593.51 1662.1 2593.68 1660.1 2599.7 1592.5 2636.08 1596.22 2636.08 1596.22"/></g><g id="HATCH-286"><polygon class="cls-1" points="3437.9 1596.94 3424.55 1567.31 3488.35 1534.64 3504.24 1568.84 3437.9 1596.94 3437.9 1596.94"/></g><g id="HATCH-287"><polygon class="cls-1" points="3415.13 1379.44 3371.71 1445.75 3316.74 1432.04 3371.25 1349.04 3354.9 1337.75 3360.62 1329.08 3351.27 1322.46 3292.21 1310.05 3302.39 1258.48 3361.44 1270.88 3353.99 1307.91 3375.8 1322.92 3408.05 1345.21 3394.87 1365.26 3415.13 1379.44 3415.13 1379.44"/></g><g id="HATCH-288"><polygon class="cls-1" points="3201.71 1565.26 3229.52 1568.16 3233.92 1568.5 3234.97 1556.64 3242.72 1557.39 3250.99 1558.14 3249.58 1570.24 3283.2 1573.55 3278.8 1610.6 3238.05 1606.46 3229.52 1605.54 3197.31 1602.31 3201.71 1565.26 3201.71 1565.26"/></g><g id="HATCH-289"><polygon class="cls-1" points="3451.27 1631.62 3439.58 1602.1 3505.91 1574.33 3519.17 1608.87 3451.27 1631.62 3451.27 1631.62"/></g><g id="HATCH-290"><polygon class="cls-1" points="3030.7 1707.84 3028.6 1730.34 3144.48 1740.35 3141.14 1775.33 3179.35 1778.64 3173.33 1846.22 3171.04 1874.19 3170.09 1886.01 3164.74 1945.18 3151.93 1944.14 3141.43 1943.29 3126.52 1941.96 3125.95 1949.53 3010.35 1939.41 3008.25 1959.26 2978.16 1956.71 2979.59 1936.96 2896.67 1929.68 2902.98 1861.34 2844.7 1856.24 2844.13 1866.63 2826.74 1864.84 2827.5 1859.73 2828.46 1845.18 2843.74 1845.93 2848.52 1790.45 2834.57 1788.84 2836.1 1770.03 2848.52 1770.79 2848.52 1778.35 2876.99 1781.75 2909.47 1785.72 2915.2 1720.6 2998.13 1727.78 3000.23 1705.38 3030.7 1707.84 3030.7 1707.84"/></g><g id="HATCH-291"><polygon class="cls-1" points="3405 1886.17 3374.54 1882.81 3381.69 1795.96 3412.38 1799.23 3405 1886.17 3405 1886.17"/></g><g id="HATCH-292"><polygon class="cls-1" points="2489.74 1970.07 2322.56 1950.4 2327.04 1914.26 2348.03 1766.49 2511.01 1785.59 2489.74 1970.07 2489.74 1970.07"/></g><g id="HATCH-293"><polygon class="cls-1" points="2498.61 1973.92 2519.77 1786.31 2529.05 1779.16 2643.22 1795.26 2650.65 1803.45 2646.19 1842.11 2655.47 1843.35 2661.6 1850.59 2660.86 1871.73 2651.21 1878.11 2641.37 1945.26 2653.8 1946.78 2661.04 1954.88 2655.47 2002.11 2661.04 2009.35 2656.68 2046.88 2662.71 2047.64 2669.77 2059.07 2666.24 2089.64 2656.68 2096.11 2649.16 2095.07 2537.78 2079.64 2516.06 2076.97 2510.21 2068.59 2513.65 2036.78 2520.33 2030.88 2526.46 2031.54 2498.61 1973.92 2498.61 1973.92"/></g><g id="HATCH-294"><polygon class="cls-1" points="2397.99 2124.88 2524.17 2136.98 2518.33 2177.32 2515.95 2194.06 2417.81 2184.28 2391.13 2180.84 2397.99 2124.88 2397.99 2124.88"/></g><g id="HATCH-295"><polygon class="cls-1" points="2289.6 2110.93 2335.74 2114.73 2332.58 2183.94 2280.02 2174.52 2289.6 2110.93 2289.6 2110.93"/></g><g id="HATCH-296"><polygon class="cls-1" points="2192.05 2151.48 2197.27 2107.19 2281.32 2110.44 2271.14 2173.23 2241.5 2168.29 2190.72 2160.61 2192.05 2151.48 2192.05 2151.48"/></g><g id="HATCH-297"><polygon class="cls-1" points="3897.22 2091.4 3898.77 2085.78 3938.87 2098.06 3923.81 2130.5 3889.04 2120.14 3889.04 2119.98 3893.86 2103.04 3897.22 2091.4 3897.22 2091.4"/></g><g id="HATCH-298"><polygon class="cls-1" points="3657.4 2118.39 3727.83 2129.12 3737.08 2130.66 3734.43 2145.01 3725.1 2143.64 3721.23 2164.29 3650.8 2153.32 3657.4 2118.39 3657.4 2118.39"/></g><g id="HATCH-299"><polygon class="cls-1" points="3664.52 2075.56 3746.9 2088.31 3744.25 2102.99 3732.42 2101.21 3728.8 2121.46 3658.17 2110.73 3664.52 2075.56 3664.52 2075.56"/></g><g id="HATCH-300"><polygon class="cls-1" points="3900.73 2078.3 3910.75 2038.92 3973.84 2057.66 3949.64 2087.71 3946.36 2091.59 3943.07 2090.93 3900.73 2078.3 3900.73 2078.3"/></g><g id="HATCH-301"><polygon class="cls-1" points="3747.23 2081.08 3665.24 2068.23 3671.65 2032.92 3741.96 2043.82 3738.44 2063.59 3750.04 2065.46 3747.23 2081.08 3747.23 2081.08"/></g><g id="HATCH-302"><polygon class="cls-1" points="1895.99 2219.26 1908.79 2154.94 2007.03 2174.19 1993.69 2236.5 1895.99 2219.26 1895.99 2219.26"/></g><g id="HATCH-303"><polygon class="cls-1" points="3725.77 2209.09 3643.72 2196.4 3650.05 2160.93 3720.33 2172 3716.81 2192.99 3728.23 2194.77 3725.77 2209.09 3725.77 2209.09"/></g><g id="HATCH-304"><polygon class="cls-1" points="2345.09 2115.25 2389.19 2118.7 2388.62 2123.71 2382.54 2179.97 2381.57 2187.48 2342.01 2184.37 2345.09 2115.25 2345.09 2115.25"/></g><g id="HATCH-305"><polygon class="cls-1" points="2537.68 2099.78 2539.13 2089.12 2647.96 2103.52 2642.16 2150.81 2609.51 2176.94 2600.08 2184.14 2527.89 2175.78 2533.69 2134.01 2537.68 2099.78 2537.68 2099.78"/></g><g id="HATCH-306"><polygon class="cls-1" points="3725.48 2216.35 3722.48 2232.4 3710.65 2230.63 3707.29 2249.67 3636.65 2238.86 3643.01 2203.77 3725.48 2216.35 3725.48 2216.35"/></g><g id="HATCH-307"><polygon class="cls-1" points="2202.18 1833.64 2215.05 1750.77 2254.93 1755.4 2283.05 1758.91 2339.38 1765.57 2318.7 1911.52 2194.65 1896.72 2196.39 1880.81 2202.18 1833.64 2202.18 1833.64"/></g><g id="HATCH-308"><polygon class="cls-1" points="2163.17 2040.31 2133.35 2035.19 2122.54 2004.49 2144.16 1981.84 2173.22 1986.95 2183.86 2017.91 2163.17 2040.31 2163.17 2040.31"/></g><g id="HATCH-309"><polygon class="cls-1" points="1866.93 1667.22 1855.55 1720.04 1679.86 1686.68 1691.23 1633.86 1866.93 1667.22 1866.93 1667.22"/></g><g id="HATCH-310"><polygon class="cls-1" points="980.59 2333.79 978.28 2393.79 881.49 2390.89 882.97 2349.02 834.34 2347.15 821.12 2329.03 932.05 2332.34 980.59 2333.79 980.59 2333.79"/></g><g id="HATCH-311"><polygon class="cls-1" points="517.45 2497.6 563.51 2496.23 564.24 2511.77 518.26 2513.25 517.45 2497.6 517.45 2497.6"/></g><g id="HATCH-312"><polygon class="cls-1" points="661.63 2348.22 670.93 2360.87 683.55 2351.55 695.61 2342.8 740.21 2400.51 724.07 2412.11 781.39 2490.63 797.43 2479.03 810.43 2496.81 733.94 2553.09 703.77 2575.05 659.54 2514.78 651 2521.14 607.63 2461.73 620.45 2452.41 526.69 2324.27 557.24 2301.64 561.8 2307.44 604.69 2275.97 640.28 2324.65 642.94 2322.75 661.63 2348.22 661.63 2348.22"/></g><g id="HATCH-313"><polygon class="cls-1" points="1.09 4023.91 111.73 4054.48 94.61 4131.52 70.92 4217.31 62.72 4249.2 24.7 4242.71 1.09 4238.66 1.09 4023.91 1.09 4023.91"/></g><g id="HATCH-314"><polygon class="cls-1" points="1.09 3786.45 68.72 3802.83 64.99 3815.95 124.9 3830.4 121.26 3843.36 1.09 3814.11 1.09 3786.45 1.09 3786.45"/></g><g id="HATCH-315"><polygon class="cls-1" points="1.09 3633.17 6.06 3605.59 16.24 3609.57 1.09 3695.4 1.09 3633.17 1.09 3633.17"/></g><g id="HATCH-316"><polygon class="cls-1" points="1.09 3152.1 6.98 3152.37 8 3152.47 8.69 3152.7 8.77 3152.91 8.69 3153.14 8.43 3153.37 7.92 3153.55 7.36 3153.69 6.43 3153.69 1.09 3153.41 1.09 3152.1 1.09 3152.1"/></g><g id="HATCH-317"><polygon class="cls-1" points="514.23 2663.22 482.14 2663.86 469.71 2657 513.83 2656.96 514.23 2663.22 514.23 2663.22"/></g><g id="HATCH-318"><polygon class="cls-1" points="4392.35 2229.53 4374.06 2221.33 4392.35 2142.56 4392.35 2229.53 4392.35 2229.53"/></g><g id="HATCH-319"><path class="cls-1" d="m4024.68,2483.43l122.01,71.54,21.38,18.14,2.19,27.26.95,17.39,35.73,21.15-20.72,33.84,40.1,23.88-2.09,3.57-39.24-23.41-217.13-129.26-36.77-22.84,63-8.74,21.95-37.6,8.65,5.08h0m-4.56,20.96l-22.81,38.17,76.59,44.93,3.04-4.98,43.9,25.76,20.15-33.37-120.87-70.5h0Z"/></g><g id="HATCH-320"><polygon class="cls-1" points="4392.35 2042.28 4310.1 2015.85 4261.57 2035.81 4241 2034.89 4227.48 1993.03 4249.34 1972.52 4261.75 1966.98 4275.46 1964.02 4289.35 1964.95 4300.84 1968.83 4337.7 1985 4336.78 1984.35 4319.36 1969.2 4392.35 1884.48 4392.35 2042.28 4392.35 2042.28"/></g><g id="HATCH-321"><path class="cls-1" d="m4392.35,2625.26l-27.04-31.97-23.95.29-45.87,95.62-86.04-52.32-36.31-21.8-.97-17.92,21.24-17.92,8.69-32.26-148.32-120.52-29.55,50.18-8.79-5.23-22.31,38.75-64.02,9.01-92.99-58.81h-.19l-7.92-8.91-5.12-8.04-2.7-7.56-1.83-7.27-1.16-6.49.58-7.27,1.93-6.39,2.61-5.52,1.45-3.1,3.38-6.01,6.08-10.56,3.28-4.84,200.95-312.63,19.8-31.2,185.98-56.48-22.79,21.51,14.1,43.89,21.44.97-31.48,13.08-25.59,79.05-21.15-6.78v.29l-14.77,46.5,21.15,6.78,12.94,4.07-5.99,18.6,51.56,16.66-52.53,165.47,41.33,13.27-16.61,52.02,27.81,8.91,16.61-52.12,41.91,13.47,53.11-166.05,38.05,12.11v35.46l-.58-.29-70.3,219.14-.39.78,2.51.58,68.75,22.09v77.7h0m-294.81-519.86l-16.13,49.99-6.18-1.94-16.32,51.35-31.09-10.08-14.77,46.31,31.09,10.08-13.91,43.79,103.52,33.33,45.19-141.83-22.6-7.07,16.03-50.86,6.95-21.99-28.39-9.2-18.73-5.91-27.42-8.82-7.24,22.86h0m-216.98,347.7l20.47,11.72,28.97-50.86-20.47-11.72-28.97,50.86h0m297.42-212.17l14.48,3.88,4.64-16.28-14.48-3.97-4.64,16.37h0Z"/></g><g id="HATCH-322"><polygon class="cls-1" points="4053.12 2206.2 4041.31 2244.95 4016.46 2236.52 4028.27 2197.77 4053.12 2206.2 4053.12 2206.2"/></g><g id="HATCH-323"><polygon class="cls-1" points="4392.35 2792.36 4316.11 2754.56 4258.33 2718.81 4260.71 2715.26 4303.49 2741.86 4323.24 2708.35 4300.66 2694.35 4344.08 2602.22 4366.75 2601.94 4392.35 2632.75 4392.35 2747.27 4340.97 2718.9 4328.91 2741.58 4386.87 2773.22 4392.35 2763.14 4392.35 2792.36 4392.35 2792.36"/></g><g id="HATCH-324"><polygon class="cls-1" points="4141.12 2118.04 4128.75 2162.82 4114.5 2157.49 4126.8 2112.97 4132.2 2092.95 4146.75 2098.19 4141.12 2118.04 4141.12 2118.04"/></g><g id="HATCH-325"><polygon class="cls-1" points="2426.1 3652.38 2418.14 3709.35 2385.93 3703.79 2395.87 3632.11 2428.49 3637.16 2426.1 3652.38 2426.1 3652.38"/></g><g id="HATCH-326"><polygon class="cls-1" points="2324.79 1212.32 2287.98 1211.43 2292.32 1197.08 2325.33 1200.22 2324.79 1212.32 2324.79 1212.32"/></g><g id="HATCH-327"><polygon class="cls-1" points="3726.47 2707.82 3708.66 2876.45 3663.37 2870.88 3664.39 2856.93 3676.94 2857.86 3692.38 2700.48 3726.47 2707.82 3726.47 2707.82"/></g><g id="HATCH-328"><polygon class="cls-1" points="1958.28 2857.57 1970.21 2823.19 1991.5 2834.22 1972.93 2866.92 1958.28 2857.57 1958.28 2857.57"/></g><g id="HATCH-329"><polygon class="cls-1" points="2260.96 2401.5 2276.8 2401.91 2270.33 2442.79 2222.55 2447.04 2237.89 2391.51 2249.26 2394.67 2242.54 2429.22 2255.23 2430.97 2260.96 2401.5 2260.96 2401.5"/></g><g id="HATCH-330"><polygon class="cls-1" points="2409.82 2192.61 2384.8 2335.53 2375.68 2334.61 2363.82 2333.88 2384 2206.41 2385.29 2196.93 2386.26 2188.93 2409.82 2192.61 2409.82 2192.61"/></g><g id="HATCH-331"><polygon class="cls-1" points="2664.6 2864.09 2652.25 2946.99 2562.27 2929.87 2572.34 2778.93 2581.03 2719.74 2679.16 2735.64 2698.65 2738.84 2698.01 2743.26 2686.75 2780.06 2664.6 2864.09 2664.6 2864.09"/></g><g id="HATCH-332"><polygon class="cls-1" points="2039.15 3073.43 2030.91 3119.31 2005.83 3114.8 2012.02 3069.09 2039.15 3073.43 2039.15 3073.43"/></g><g id="HATCH-333"><polygon class="cls-1" points="1999.56 2741.19 1993.61 2753.95 1990.22 2752.7 1973.8 2746.51 1979.88 2733.69 1999.56 2741.19 1999.56 2741.19"/></g><g id="HATCH-334"><polygon class="cls-1" points="958.81 2065.15 983.34 2069.89 978.79 2095.82 967.48 2093.52 953.75 2091.08 958.81 2065.15 958.81 2065.15"/></g><g id="HATCH-335"><polygon class="cls-1" points="2028.64 1446.53 1991.54 1445.51 1989.72 1429.5 1987.75 1410.18 2027.85 1405.84 2028.64 1446.53 2028.64 1446.53"/></g><g id="HATCH-336"><polygon class="cls-1" points="1804.97 3532.88 1802 3546.18 1872.73 3559 1870.54 3568.28 1791.85 3553.98 1797.1 3531.42 1802.78 3532.42 1804.97 3532.88 1804.97 3532.88"/></g><g id="HATCH-337"><polygon class="cls-1" points="2061.55 1149.14 2057.29 1167.03 2024.3 1163.15 2030.18 1143.04 2038.55 1144.71 2061.55 1149.14 2061.55 1149.14"/></g><g id="HATCH-338"><path class="cls-1" d="m554.43,4185.31l-3.01-4.44-2.44-4.64-.94-2.42-1.88-4.54-.94-2.51-.56-2.61-1.13-5.12-.56-2.51-.38-5.51-.19-2.51.19-4.35,79-412.92,7.05-11.21,7.05-10.63,7.98-10.43,7.89-10.34,8.45-9.66,8.83-9.47,9.11-9.08,9.68-8.79,9.96-8.12,17.1-12.85,10.9-7.25,10.8-6.57,15.31-8.21,9.02,1.84-7.61,39.8-40.49-8.31-9.96,51.01-25.93,134.68-1.88,11.4,4.88.97-37.76,196.89-37.11-7.44-32.6,171.39-17.85-15.55h0m32.88-170.91l17.1,3.67,8.45-43.96-17.38-3.67-8.17,43.96h0Z"/></g><g id="HATCH-339"><polygon class="cls-1" points="163.65 3798.05 307.25 3833.78 303.38 3847.26 312.34 3849.48 308.38 3863.31 300.45 3890.71 254.13 3879.27 168.37 3857.9 128.55 3847.97 132.33 3834.22 70.15 3818.88 74.02 3804.96 155.92 3825.36 163.65 3798.05 163.65 3798.05"/></g><g id="HATCH-340"><polygon class="cls-1" points="1746.86 3642.06 1749.58 3628.87 1867.23 3645.74 1864.41 3658.86 1746.86 3642.06 1746.86 3642.06"/></g><g id="HATCH-341"><polygon class="cls-1" points="1389.27 3445.17 1503.04 3481.18 1498.09 3503.26 1497.14 3506.29 1402.97 3481.09 1396.98 3505.1 1339.9 3489.88 1339.62 3491.35 1338.1 3496.66 1198.08 3452.68 1226.04 3390.28 1233.46 3367.65 1240.03 3370.49 1230.51 3392.11 1265.23 3406.59 1334.67 3427.76 1389.27 3445.17 1389.27 3445.17"/></g><g id="HATCH-342"><polygon class="cls-1" points="1822.51 1947.31 1831.3 1914.93 1907.8 1930.96 1901.12 1961.72 1822.51 1947.31 1822.51 1947.31"/></g><g id="HATCH-343"><polygon class="cls-1" points="2101.14 1423.93 2094.13 1447.58 2068.77 1448.4 2065.43 1414.52 2058.09 1403.38 2097.16 1398.47 2093.65 1421.8 2101.14 1423.93 2101.14 1423.93"/></g><g id="HATCH-344"><polygon class="cls-1" points="2530.07 2081.22 2528.92 2090.91 2514.05 2088.32 2503.33 2072.67 2505.04 2049.75 2511.48 2044.91 2508.83 2071.86 2513.34 2078.96 2530.07 2081.22 2530.07 2081.22"/></g><g id="HATCH-345"><polygon class="cls-1" points="1578.29 1975.44 1618.13 1983.73 1625.41 1948.61 1631.23 1926.72 1693.63 1945.55 1667.07 2036.78 1568.65 2009.13 1578.29 1975.44 1578.29 1975.44"/></g><g id="HATCH-346"><polygon class="cls-1" points="3019.71 4141.84 3013.89 4177.97 2996.88 4174.74 2992.57 4174.03 2997.74 4137.67 3019.71 4141.84 3019.71 4141.84"/></g><g id="HATCH-347"><polygon class="cls-1" points="600.55 4014.99 589.37 4012.02 594.71 3976.55 606.09 3979.51 600.55 4014.99 600.55 4014.99"/></g><g id="HATCH-348"><polygon class="cls-1" points="2639.64 1328.23 2641.48 1361.15 2628.16 1362.44 2626.33 1329.37 2639.64 1328.23 2639.64 1328.23"/></g><g id="HATCH-349"><polygon class="cls-1" points="2213.33 2567.75 2208.91 2600.98 2178.73 2580.15 2184.91 2547.91 2213.33 2567.75 2213.33 2567.75"/></g></svg>